<?xml version="1.0" encoding="UTF-8"?>
<svg xmlns="http://www.w3.org/2000/svg" viewBox="0 0 1920 1080">
  <g id="Layer_2">
    <rect x="-40" y="-27" width="1992" height="1154" fill="#f9f9f9"/>
  </g>
  <g id="SST_Second_Floor">
    <rect x="-15.5" y="438.5" width="302.5" height="250" fill="#95efcc" stroke="#6d8c7d" stroke-miterlimit="10" stroke-width="3"/>
    <rect x="168.5" y="950.5" width="942" height="149" fill="#ddd" stroke="#999" stroke-miterlimit="10"/>
    <rect x="363.5" y="950" width="273.5" height="150.5" fill="#2e3a6e"/>
    <rect x="816" y="949" width="294.5" height="150.5" fill="#2e3a6e"/>
    <polyline points="-15.5 1099.5 200.5 1099.5 200.5 949 -15.5 949 -15.5 1099.5" fill="#2e3a6e" stroke="#fff" stroke-miterlimit="10"/>
    <rect x="-15.5" y="825.5" width="22" height="123.5" fill="#ddd" stroke="#999" stroke-miterlimit="10"/>
    <rect x="1744" y="578.5" width="190.14" height="187" fill="#71b340" stroke="#fff" stroke-miterlimit="10" stroke-width="3"/>
    <rect x="1672.5" y="950.5" width="268" height="150" fill="#757575" stroke="#fff" stroke-miterlimit="10" stroke-width="3"/>
    <rect x="1677.5" y="765.5" width="253" height="83" fill="#ddd" stroke="#999" stroke-miterlimit="10" stroke-width="3"/>
    <polyline points="1673.5 1099.5 1110.5 1099.5 1110.5 1042.5 1673.5 1042.5" fill="#ddd" stroke="#999" stroke-miterlimit="10"/>
    <rect x="1909" y="850.5" width="22" height="101" fill="#ddd" stroke="#999" stroke-miterlimit="10"/>
    <rect x="460.5" y="-10" width="1065" height="196.5" fill="#ddd" stroke="#999" stroke-miterlimit="10" stroke-width="3"/>
    <rect x="459" y="-12" width="276" height="166" fill="#395e7c"/>
    <rect x="1676.5" y="-12" width="258" height="201.5" fill="#757575" stroke="#fff" stroke-miterlimit="10" stroke-width="3"/>
    <rect x="1678.5" y="192.5" width="252" height="250" fill="#ddd" stroke="#999" stroke-miterlimit="10" stroke-width="3"/>
    <rect x="-15.5" y="186.5" width="302.5" height="252" fill="#95efcc" stroke="#6d8c7d" stroke-miterlimit="10" stroke-width="3"/>
    <rect x="1525.5" y="-10.5" width="153" height="21" fill="#ddd" stroke="#999" stroke-miterlimit="10"/>
    <rect x="288.5" y="-10.5" width="170" height="21" fill="#ddd" stroke="#999" stroke-miterlimit="10"/>
    <rect x="-17.5" y="-10" width="304.5" height="196.5" fill="#ddd" stroke="#999" stroke-miterlimit="10" stroke-width="3"/>
    <rect x=".12" y="-12" width="287.88" height="166" fill="#395e7c"/>
    <polyline points="290 690.5 290 826.5 -17.5 826.5 -17.5 690.5" fill="#fed766" stroke="#fff" stroke-miterlimit="10" stroke-width="3"/>
    <rect x="1675.5" y="442.5" width="263" height="136" fill="#fed766" stroke="#fff" stroke-miterlimit="10" stroke-width="3"/>
    <g>
      <path d="M36.03,771.73c-2.34-1-4.19-2.44-5.55-4.32-1.36-1.88-2.06-4.1-2.1-6.66h9c.12,1.72.73,3.08,1.83,4.08,1.1,1,2.61,1.5,4.53,1.5s3.5-.47,4.62-1.41c1.12-.94,1.68-2.17,1.68-3.69,0-1.24-.38-2.26-1.14-3.06-.76-.8-1.71-1.43-2.85-1.89-1.14-.46-2.71-.97-4.71-1.53-2.72-.8-4.93-1.59-6.63-2.37-1.7-.78-3.16-1.96-4.38-3.54-1.22-1.58-1.83-3.69-1.83-6.33,0-2.48.62-4.64,1.86-6.48,1.24-1.84,2.98-3.25,5.22-4.23,2.24-.98,4.8-1.47,7.68-1.47,4.32,0,7.83,1.05,10.53,3.15,2.7,2.1,4.19,5.03,4.47,8.79h-9.24c-.08-1.44-.69-2.63-1.83-3.57-1.14-.94-2.65-1.41-4.53-1.41-1.64,0-2.95.42-3.93,1.26-.98.84-1.47,2.06-1.47,3.66,0,1.12.37,2.05,1.11,2.79.74.74,1.66,1.34,2.76,1.8,1.1.46,2.65.99,4.65,1.59,2.72.8,4.94,1.6,6.66,2.4,1.72.8,3.2,2,4.44,3.6,1.24,1.6,1.86,3.7,1.86,6.3,0,2.24-.58,4.32-1.74,6.24-1.16,1.92-2.86,3.45-5.1,4.59-2.24,1.14-4.9,1.71-7.98,1.71-2.92,0-5.55-.5-7.89-1.5Z" fill="#fff"/>
      <path d="M94.5,730.93v6.78h-11.16v35.1h-8.4v-35.1h-11.16v-6.78h30.72Z" fill="#fff"/>
      <path d="M126.3,764.83h-16.68l-2.76,7.98h-8.82l15.06-41.94h9.78l15.06,41.94h-8.88l-2.76-7.98ZM124.02,758.11l-6.06-17.52-6.06,17.52h12.12Z" fill="#fff"/>
      <path d="M151.98,730.93v41.88h-8.4v-41.88h8.4Z" fill="#fff"/>
      <path d="M181.86,772.81l-9.24-16.32h-3.96v16.32h-8.4v-41.88h15.72c3.24,0,6,.57,8.28,1.71,2.28,1.14,3.99,2.68,5.13,4.62,1.14,1.94,1.71,4.11,1.71,6.51,0,2.76-.8,5.25-2.4,7.47-1.6,2.22-3.98,3.75-7.14,4.59l10.02,16.98h-9.72ZM168.66,750.19h7.02c2.28,0,3.98-.55,5.1-1.65,1.12-1.1,1.68-2.63,1.68-4.59s-.56-3.41-1.68-4.47c-1.12-1.06-2.82-1.59-5.1-1.59h-7.02v12.3Z" fill="#fff"/>
      <path d="M205.29,771.73c-2.34-1-4.19-2.44-5.55-4.32-1.36-1.88-2.06-4.1-2.1-6.66h9c.12,1.72.73,3.08,1.83,4.08,1.1,1,2.61,1.5,4.53,1.5s3.5-.47,4.62-1.41c1.12-.94,1.68-2.17,1.68-3.69,0-1.24-.38-2.26-1.14-3.06-.76-.8-1.71-1.43-2.85-1.89-1.14-.46-2.71-.97-4.71-1.53-2.72-.8-4.93-1.59-6.63-2.37-1.7-.78-3.16-1.96-4.38-3.54-1.22-1.58-1.83-3.69-1.83-6.33,0-2.48.62-4.64,1.86-6.48,1.24-1.84,2.98-3.25,5.22-4.23,2.24-.98,4.8-1.47,7.68-1.47,4.32,0,7.83,1.05,10.53,3.15,2.7,2.1,4.19,5.03,4.47,8.79h-9.24c-.08-1.44-.69-2.63-1.83-3.57-1.14-.94-2.65-1.41-4.53-1.41-1.64,0-2.95.42-3.93,1.26-.98.84-1.47,2.06-1.47,3.66,0,1.12.37,2.05,1.11,2.79.74.74,1.66,1.34,2.76,1.8,1.1.46,2.65.99,4.65,1.59,2.72.8,4.94,1.6,6.66,2.4,1.72.8,3.2,2,4.44,3.6,1.24,1.6,1.86,3.7,1.86,6.3,0,2.24-.58,4.32-1.74,6.24-1.16,1.92-2.86,3.45-5.1,4.59-2.24,1.14-4.9,1.71-7.98,1.71-2.92,0-5.55-.5-7.89-1.5Z" fill="#fff"/>
    </g>
    <rect x="447.66" y="315.4" width="1067.84" height="500.1" fill="#95efcc" stroke="#6d8c7d" stroke-miterlimit="10" stroke-width="3"/>
    <rect x="534.5" y="388.5" width="887" height="343" fill="#ddd" stroke="#999" stroke-miterlimit="10" stroke-width="3"/>
    <g>
      <path d="M36.03,771.73c-2.34-1-4.19-2.44-5.55-4.32-1.36-1.88-2.06-4.1-2.1-6.66h9c.12,1.72.73,3.08,1.83,4.08,1.1,1,2.61,1.5,4.53,1.5s3.5-.47,4.62-1.41c1.12-.94,1.68-2.17,1.68-3.69,0-1.24-.38-2.26-1.14-3.06-.76-.8-1.71-1.43-2.85-1.89-1.14-.46-2.71-.97-4.71-1.53-2.72-.8-4.93-1.59-6.63-2.37-1.7-.78-3.16-1.96-4.38-3.54-1.22-1.58-1.83-3.69-1.83-6.33,0-2.48.62-4.64,1.86-6.48,1.24-1.84,2.98-3.25,5.22-4.23,2.24-.98,4.8-1.47,7.68-1.47,4.32,0,7.83,1.05,10.53,3.15,2.7,2.1,4.19,5.03,4.47,8.79h-9.24c-.08-1.44-.69-2.63-1.83-3.57-1.14-.94-2.65-1.41-4.53-1.41-1.64,0-2.95.42-3.93,1.26-.98.84-1.47,2.06-1.47,3.66,0,1.12.37,2.05,1.11,2.79.74.74,1.66,1.34,2.76,1.8,1.1.46,2.65.99,4.65,1.59,2.72.8,4.94,1.6,6.66,2.4,1.72.8,3.2,2,4.44,3.6,1.24,1.6,1.86,3.7,1.86,6.3,0,2.24-.58,4.32-1.74,6.24-1.16,1.92-2.86,3.45-5.1,4.59-2.24,1.14-4.9,1.71-7.98,1.71-2.92,0-5.55-.5-7.89-1.5Z" fill="#fff"/>
      <path d="M94.5,730.93v6.78h-11.16v35.1h-8.4v-35.1h-11.16v-6.78h30.72Z" fill="#fff"/>
      <path d="M126.3,764.83h-16.68l-2.76,7.98h-8.82l15.06-41.94h9.78l15.06,41.94h-8.88l-2.76-7.98ZM124.02,758.11l-6.06-17.52-6.06,17.52h12.12Z" fill="#fff"/>
      <path d="M151.98,730.93v41.88h-8.4v-41.88h8.4Z" fill="#fff"/>
      <path d="M181.86,772.81l-9.24-16.32h-3.96v16.32h-8.4v-41.88h15.72c3.24,0,6,.57,8.28,1.71,2.28,1.14,3.99,2.68,5.13,4.62,1.14,1.94,1.71,4.11,1.71,6.51,0,2.76-.8,5.25-2.4,7.47-1.6,2.22-3.98,3.75-7.14,4.59l10.02,16.98h-9.72ZM168.66,750.19h7.02c2.28,0,3.98-.55,5.1-1.65,1.12-1.1,1.68-2.63,1.68-4.59s-.56-3.41-1.68-4.47c-1.12-1.06-2.82-1.59-5.1-1.59h-7.02v12.3Z" fill="#fff"/>
      <path d="M205.29,771.73c-2.34-1-4.19-2.44-5.55-4.32-1.36-1.88-2.06-4.1-2.1-6.66h9c.12,1.72.73,3.08,1.83,4.08,1.1,1,2.61,1.5,4.53,1.5s3.5-.47,4.62-1.41c1.12-.94,1.68-2.17,1.68-3.69,0-1.24-.38-2.26-1.14-3.06-.76-.8-1.71-1.43-2.85-1.89-1.14-.46-2.71-.97-4.71-1.53-2.72-.8-4.93-1.59-6.63-2.37-1.7-.78-3.16-1.96-4.38-3.54-1.22-1.58-1.83-3.69-1.83-6.33,0-2.48.62-4.64,1.86-6.48,1.24-1.84,2.98-3.25,5.22-4.23,2.24-.98,4.8-1.47,7.68-1.47,4.32,0,7.83,1.05,10.53,3.15,2.7,2.1,4.19,5.03,4.47,8.79h-9.24c-.08-1.44-.69-2.63-1.83-3.57-1.14-.94-2.65-1.41-4.53-1.41-1.64,0-2.95.42-3.93,1.26-.98.84-1.47,2.06-1.47,3.66,0,1.12.37,2.05,1.11,2.79.74.74,1.66,1.34,2.76,1.8,1.1.46,2.65.99,4.65,1.59,2.72.8,4.94,1.6,6.66,2.4,1.72.8,3.2,2,4.44,3.6,1.24,1.6,1.86,3.7,1.86,6.3,0,2.24-.58,4.32-1.74,6.24-1.16,1.92-2.86,3.45-5.1,4.59-2.24,1.14-4.9,1.71-7.98,1.71-2.92,0-5.55-.5-7.89-1.5Z" fill="#fff"/>
    </g>
    <g>
      <path d="M1808.93,658.61l-6.08-10.75h-2.61v10.75h-5.53v-27.57h10.35c2.13,0,3.95.38,5.45,1.12,1.5.75,2.63,1.77,3.38,3.04.75,1.28,1.13,2.71,1.13,4.29,0,1.82-.53,3.46-1.58,4.92-1.05,1.46-2.62,2.47-4.7,3.02l6.6,11.18h-6.4ZM1800.24,643.72h4.62c1.5,0,2.62-.36,3.36-1.09s1.11-1.73,1.11-3.02-.37-2.25-1.11-2.94c-.74-.7-1.86-1.05-3.36-1.05h-4.62v8.1Z" fill="#fff"/>
      <path d="M1825.56,635.5v6.91h9.28v4.38h-9.28v7.31h10.47v4.5h-16v-27.61h16v4.5h-10.47Z" fill="#fff"/>
      <path d="M1845.37,657.9c-1.54-.66-2.76-1.61-3.65-2.84-.9-1.24-1.36-2.7-1.38-4.38h5.93c.08,1.13.48,2.03,1.2,2.69s1.72.99,2.98.99,2.3-.31,3.04-.93,1.11-1.43,1.11-2.43c0-.82-.25-1.49-.75-2.01-.5-.53-1.13-.94-1.88-1.24-.75-.3-1.79-.64-3.1-1.01-1.79-.53-3.25-1.05-4.36-1.56-1.12-.51-2.08-1.29-2.88-2.33-.8-1.04-1.21-2.43-1.21-4.17,0-1.63.41-3.05,1.22-4.27.82-1.21,1.96-2.14,3.44-2.79,1.47-.64,3.16-.97,5.06-.97,2.84,0,5.16.69,6.93,2.07,1.78,1.38,2.76,3.31,2.94,5.79h-6.08c-.05-.95-.45-1.73-1.21-2.35-.75-.62-1.75-.93-2.98-.93-1.08,0-1.94.28-2.59.83-.65.55-.97,1.36-.97,2.41,0,.74.24,1.35.73,1.84s1.09.88,1.82,1.19c.72.3,1.74.65,3.06,1.05,1.79.53,3.25,1.05,4.38,1.58,1.13.53,2.11,1.32,2.92,2.37s1.22,2.44,1.22,4.15c0,1.48-.38,2.84-1.15,4.11-.76,1.26-1.88,2.27-3.36,3.02-1.48.75-3.23,1.13-5.25,1.13-1.92,0-3.65-.33-5.2-.99Z" fill="#fff"/>
      <path d="M1883.86,631.04v4.46h-7.35v23.11h-5.53v-23.11h-7.35v-4.46h20.23Z" fill="#fff"/>
      <path d="M1794.09,706.01l-6.08-10.75h-2.61v10.75h-5.53v-27.57h10.35c2.13,0,3.95.38,5.45,1.13,1.5.75,2.63,1.76,3.38,3.04.75,1.28,1.13,2.71,1.13,4.29,0,1.82-.53,3.46-1.58,4.92-1.05,1.46-2.62,2.47-4.7,3.02l6.6,11.18h-6.4ZM1785.4,691.12h4.62c1.5,0,2.62-.36,3.36-1.09s1.11-1.73,1.11-3.02-.37-2.25-1.11-2.94c-.74-.7-1.86-1.05-3.36-1.05h-4.62v8.1Z" fill="#fff"/>
      <path d="M1810.88,704.47c-2.16-1.21-3.87-2.89-5.14-5.04-1.26-2.15-1.9-4.58-1.9-7.29s.63-5.1,1.9-7.25c1.26-2.15,2.98-3.83,5.14-5.04,2.16-1.21,4.53-1.82,7.11-1.82s4.98.61,7.13,1.82,3.84,2.89,5.1,5.04c1.25,2.15,1.88,4.56,1.88,7.25s-.63,5.14-1.88,7.29c-1.25,2.15-2.96,3.83-5.12,5.04-2.16,1.21-4.53,1.82-7.11,1.82s-4.95-.61-7.11-1.82ZM1822.38,700.23c1.26-.75,2.25-1.82,2.96-3.22.71-1.4,1.07-3.01,1.07-4.86s-.36-3.46-1.07-4.84c-.71-1.38-1.7-2.44-2.96-3.18-1.26-.74-2.73-1.11-4.38-1.11s-3.13.37-4.4,1.11c-1.28.74-2.27,1.8-2.98,3.18-.71,1.38-1.07,3-1.07,4.84s.36,3.46,1.07,4.86c.71,1.4,1.71,2.47,2.98,3.22s2.75,1.13,4.4,1.13,3.12-.38,4.38-1.13Z" fill="#fff"/>
      <path d="M1841.89,704.47c-2.16-1.21-3.87-2.89-5.14-5.04-1.26-2.15-1.9-4.58-1.9-7.29s.63-5.1,1.9-7.25c1.26-2.15,2.98-3.83,5.14-5.04,2.16-1.21,4.53-1.82,7.11-1.82s4.98.61,7.13,1.82,3.84,2.89,5.1,5.04c1.25,2.15,1.88,4.56,1.88,7.25s-.63,5.14-1.88,7.29c-1.25,2.15-2.96,3.83-5.12,5.04-2.16,1.21-4.53,1.82-7.11,1.82s-4.95-.61-7.11-1.82ZM1853.39,700.23c1.26-.75,2.25-1.82,2.96-3.22.71-1.4,1.07-3.01,1.07-4.86s-.36-3.46-1.07-4.84c-.71-1.38-1.7-2.44-2.96-3.18-1.26-.74-2.73-1.11-4.38-1.11s-3.13.37-4.4,1.11c-1.28.74-2.27,1.8-2.98,3.18-.71,1.38-1.07,3-1.07,4.84s.36,3.46,1.07,4.86c.71,1.4,1.71,2.47,2.98,3.22s2.75,1.13,4.4,1.13,3.12-.38,4.38-1.13Z" fill="#fff"/>
      <path d="M1897.27,678.44v27.57h-5.53v-17.93l-7.39,17.93h-4.19l-7.43-17.93v17.93h-5.53v-27.57h6.28l8.77,20.5,8.77-20.5h6.24Z" fill="#fff"/>
    </g>
    <g>
      <path d="M1706.59,530.22c-2.34-1-4.19-2.44-5.55-4.32-1.36-1.88-2.06-4.1-2.1-6.66h9c.12,1.72.73,3.08,1.83,4.08,1.1,1,2.61,1.5,4.53,1.5s3.5-.47,4.62-1.41c1.12-.94,1.68-2.17,1.68-3.69,0-1.24-.38-2.26-1.14-3.06s-1.71-1.43-2.85-1.89c-1.14-.46-2.71-.97-4.71-1.53-2.72-.8-4.93-1.59-6.63-2.37-1.7-.78-3.16-1.96-4.38-3.54s-1.83-3.69-1.83-6.33c0-2.48.62-4.64,1.86-6.48,1.24-1.84,2.98-3.25,5.22-4.23,2.24-.98,4.8-1.47,7.68-1.47,4.32,0,7.83,1.05,10.53,3.15,2.7,2.1,4.19,5.03,4.47,8.79h-9.24c-.08-1.44-.69-2.63-1.83-3.57-1.14-.94-2.65-1.41-4.53-1.41-1.64,0-2.95.42-3.93,1.26-.98.84-1.47,2.06-1.47,3.66,0,1.12.37,2.05,1.11,2.79s1.66,1.34,2.76,1.8c1.1.46,2.65.99,4.65,1.59,2.72.8,4.94,1.6,6.66,2.4s3.2,2,4.44,3.6c1.24,1.6,1.86,3.7,1.86,6.3,0,2.24-.58,4.32-1.74,6.24-1.16,1.92-2.86,3.45-5.1,4.59s-4.9,1.71-7.98,1.71c-2.92,0-5.55-.5-7.89-1.5Z" fill="#fff"/>
      <path d="M1765.06,489.42v6.78h-11.16v35.1h-8.4v-35.1h-11.16v-6.78h30.72Z" fill="#fff"/>
      <path d="M1796.86,523.32h-16.68l-2.76,7.98h-8.82l15.06-41.94h9.78l15.06,41.94h-8.88l-2.76-7.98ZM1794.58,516.6l-6.06-17.52-6.06,17.52h12.12Z" fill="#fff"/>
      <path d="M1822.54,489.42v41.88h-8.4v-41.88h8.4Z" fill="#fff"/>
      <path d="M1852.42,531.3l-9.24-16.32h-3.96v16.32h-8.4v-41.88h15.72c3.24,0,6,.57,8.28,1.71,2.28,1.14,3.99,2.68,5.13,4.62,1.14,1.94,1.71,4.11,1.71,6.51,0,2.76-.8,5.25-2.4,7.47-1.6,2.22-3.98,3.75-7.14,4.59l10.02,16.98h-9.72ZM1839.22,508.68h7.02c2.28,0,3.98-.55,5.1-1.65,1.12-1.1,1.68-2.63,1.68-4.59s-.56-3.41-1.68-4.47c-1.12-1.06-2.82-1.59-5.1-1.59h-7.02v12.3Z" fill="#fff"/>
      <path d="M1875.85,530.22c-2.34-1-4.19-2.44-5.55-4.32-1.36-1.88-2.06-4.1-2.1-6.66h9c.12,1.72.73,3.08,1.83,4.08,1.1,1,2.61,1.5,4.53,1.5s3.5-.47,4.62-1.41c1.12-.94,1.68-2.17,1.68-3.69,0-1.24-.38-2.26-1.14-3.06-.76-.8-1.71-1.43-2.85-1.89-1.14-.46-2.71-.97-4.71-1.53-2.72-.8-4.93-1.59-6.63-2.37-1.7-.78-3.16-1.96-4.38-3.54-1.22-1.58-1.83-3.69-1.83-6.33,0-2.48.62-4.64,1.86-6.48,1.24-1.84,2.98-3.25,5.22-4.23,2.24-.98,4.8-1.47,7.68-1.47,4.32,0,7.83,1.05,10.53,3.15s4.19,5.03,4.47,8.79h-9.24c-.08-1.44-.69-2.63-1.83-3.57-1.14-.94-2.65-1.41-4.53-1.41-1.64,0-2.95.42-3.93,1.26-.98.84-1.47,2.06-1.47,3.66,0,1.12.37,2.05,1.11,2.79.74.74,1.66,1.34,2.76,1.8,1.1.46,2.65.99,4.65,1.59,2.72.8,4.94,1.6,6.66,2.4,1.72.8,3.2,2,4.44,3.6,1.24,1.6,1.86,3.7,1.86,6.3,0,2.24-.58,4.32-1.74,6.24s-2.86,3.45-5.1,4.59c-2.24,1.14-4.9,1.71-7.98,1.71-2.92,0-5.55-.5-7.89-1.5Z" fill="#fff"/>
    </g>
    <g>
      <path d="M1726.33,107.2c-2.34-1-4.19-2.44-5.55-4.32-1.36-1.88-2.06-4.1-2.1-6.66h9c.12,1.72.73,3.08,1.83,4.08,1.1,1,2.61,1.5,4.53,1.5s3.5-.47,4.62-1.41c1.12-.94,1.68-2.17,1.68-3.69,0-1.24-.38-2.26-1.14-3.06-.76-.8-1.71-1.43-2.85-1.89-1.14-.46-2.71-.97-4.71-1.53-2.72-.8-4.93-1.59-6.63-2.37-1.7-.78-3.16-1.96-4.38-3.54-1.22-1.58-1.83-3.69-1.83-6.33,0-2.48.62-4.64,1.86-6.48,1.24-1.84,2.98-3.25,5.22-4.23,2.24-.98,4.8-1.47,7.68-1.47,4.32,0,7.83,1.05,10.53,3.15s4.19,5.03,4.47,8.79h-9.24c-.08-1.44-.69-2.63-1.83-3.57-1.14-.94-2.65-1.41-4.53-1.41-1.64,0-2.95.42-3.93,1.26-.98.84-1.47,2.06-1.47,3.66,0,1.12.37,2.05,1.11,2.79s1.66,1.34,2.76,1.8,2.65.99,4.65,1.59c2.72.8,4.94,1.6,6.66,2.4,1.72.8,3.2,2,4.44,3.6,1.24,1.6,1.86,3.7,1.86,6.3,0,2.24-.58,4.32-1.74,6.24s-2.86,3.45-5.1,4.59c-2.24,1.14-4.9,1.71-7.98,1.71-2.92,0-5.55-.5-7.89-1.5Z" fill="#fff"/>
      <path d="M1784.8,66.4v6.78h-11.16v35.1h-8.4v-35.1h-11.16v-6.78h30.72Z" fill="#fff"/>
      <path d="M1816.6,100.3h-16.68l-2.76,7.98h-8.82l15.06-41.94h9.78l15.06,41.94h-8.88l-2.76-7.98ZM1814.32,93.58l-6.06-17.52-6.06,17.52h12.12Z" fill="#fff"/>
      <path d="M1859.74,66.4v6.78h-17.46v10.74h13.38v6.66h-13.38v17.7h-8.4v-41.88h25.86Z" fill="#fff"/>
      <path d="M1891.54,66.4v6.78h-17.46v10.74h13.38v6.66h-13.38v17.7h-8.4v-41.88h25.86Z" fill="#fff"/>
    </g>
    <g>
      <path d="M1727.33,1039.2c-2.34-1-4.19-2.44-5.55-4.32-1.36-1.88-2.06-4.1-2.1-6.66h9c.12,1.72.73,3.08,1.83,4.08,1.1,1,2.61,1.5,4.53,1.5s3.5-.47,4.62-1.41c1.12-.94,1.68-2.17,1.68-3.69,0-1.24-.38-2.26-1.14-3.06-.76-.8-1.71-1.43-2.85-1.89-1.14-.46-2.71-.97-4.71-1.53-2.72-.8-4.93-1.59-6.63-2.37-1.7-.78-3.16-1.96-4.38-3.54-1.22-1.58-1.83-3.69-1.83-6.33,0-2.48.62-4.64,1.86-6.48,1.24-1.84,2.98-3.25,5.22-4.23,2.24-.98,4.8-1.47,7.68-1.47,4.32,0,7.83,1.05,10.53,3.15s4.19,5.03,4.47,8.79h-9.24c-.08-1.44-.69-2.63-1.83-3.57-1.14-.94-2.65-1.41-4.53-1.41-1.64,0-2.95.42-3.93,1.26-.98.84-1.47,2.06-1.47,3.66,0,1.12.37,2.05,1.11,2.79s1.66,1.34,2.76,1.8,2.65.99,4.65,1.59c2.72.8,4.94,1.6,6.66,2.4,1.72.8,3.2,2,4.44,3.6,1.24,1.6,1.86,3.7,1.86,6.3,0,2.24-.58,4.32-1.74,6.24s-2.86,3.45-5.1,4.59c-2.24,1.14-4.9,1.71-7.98,1.71-2.92,0-5.55-.5-7.89-1.5Z" fill="#fff"/>
      <path d="M1785.8,998.4v6.78h-11.16v35.1h-8.4v-35.1h-11.16v-6.78h30.72Z" fill="#fff"/>
      <path d="M1817.6,1032.3h-16.68l-2.76,7.98h-8.82l15.06-41.94h9.78l15.06,41.94h-8.88l-2.76-7.98ZM1815.32,1025.58l-6.06-17.52-6.06,17.52h12.12Z" fill="#fff"/>
      <path d="M1860.74,998.4v6.78h-17.46v10.74h13.38v6.66h-13.38v17.7h-8.4v-41.88h25.86Z" fill="#fff"/>
      <path d="M1892.54,998.4v6.78h-17.46v10.74h13.38v6.66h-13.38v17.7h-8.4v-41.88h25.86Z" fill="#fff"/>
    </g>
    <g>
      <path d="M852.49,375.35c-2.91-1.24-5.22-3.04-6.91-5.38-1.69-2.34-2.57-5.11-2.62-8.29h11.21c.15,2.14.91,3.84,2.28,5.08,1.37,1.25,3.25,1.87,5.64,1.87s4.36-.58,5.75-1.76c1.39-1.17,2.09-2.7,2.09-4.6,0-1.54-.47-2.81-1.42-3.81-.95-1-2.13-1.78-3.55-2.35-1.42-.57-3.38-1.21-5.87-1.91-3.39-1-6.14-1.98-8.26-2.95-2.12-.97-3.94-2.44-5.45-4.41-1.52-1.97-2.28-4.6-2.28-7.88,0-3.09.77-5.78,2.32-8.07,1.54-2.29,3.71-4.05,6.5-5.27,2.79-1.22,5.98-1.83,9.56-1.83,5.38,0,9.75,1.31,13.11,3.92s5.22,6.26,5.57,10.95h-11.51c-.1-1.79-.86-3.27-2.28-4.45-1.42-1.17-3.3-1.76-5.64-1.76-2.04,0-3.67.52-4.89,1.57-1.22,1.05-1.83,2.57-1.83,4.56,0,1.4.46,2.55,1.38,3.47.92.92,2.07,1.67,3.44,2.24,1.37.57,3.3,1.23,5.79,1.98,3.39,1,6.15,1.99,8.29,2.99,2.14,1,3.98,2.49,5.53,4.48,1.54,1.99,2.32,4.61,2.32,7.85,0,2.79-.72,5.38-2.17,7.77-1.45,2.39-3.56,4.3-6.35,5.72-2.79,1.42-6.1,2.13-9.94,2.13-3.64,0-6.91-.62-9.83-1.87Z" fill="#fff"/>
      <path d="M900.27,324.54v52.15h-10.46v-52.15h10.46Z" fill="#fff"/>
      <path d="M946.08,324.54v8.44h-13.9v43.71h-10.46v-43.71h-13.9v-8.44h38.26Z" fill="#fff"/>
      <path d="M989.19,324.54v8.44h-13.9v43.71h-10.46v-43.71h-13.9v-8.44h38.26Z" fill="#fff"/>
      <path d="M1007.27,324.54v52.15h-10.46v-52.15h10.46Z" fill="#fff"/>
      <path d="M1062.19,376.69h-10.46l-23.69-35.79v35.79h-10.46v-52.23h10.46l23.69,35.87v-35.87h10.46v52.23Z" fill="#fff"/>
      <path d="M1108.81,340.23c-1.2-2.19-2.84-3.86-4.93-5.01-2.09-1.15-4.53-1.72-7.32-1.72-3.09,0-5.83.7-8.22,2.09-2.39,1.4-4.26,3.39-5.6,5.98-1.34,2.59-2.02,5.58-2.02,8.97s.68,6.53,2.05,9.12c1.37,2.59,3.27,4.58,5.72,5.98,2.44,1.4,5.28,2.09,8.52,2.09,3.98,0,7.25-1.06,9.79-3.18,2.54-2.12,4.21-5.07,5.01-8.85h-17.93v-8h28.24v9.12c-.7,3.64-2.19,7-4.48,10.09-2.29,3.09-5.24,5.57-8.85,7.43-3.61,1.87-7.66,2.8-12.14,2.8-5.03,0-9.58-1.13-13.64-3.4-4.06-2.27-7.25-5.42-9.56-9.45-2.32-4.04-3.47-8.62-3.47-13.75s1.16-9.73,3.47-13.79c2.32-4.06,5.5-7.22,9.56-9.49,4.06-2.27,8.58-3.4,13.56-3.4,5.88,0,10.98,1.43,15.32,4.3,4.33,2.87,7.32,6.89,8.97,12.07h-12.03Z" fill="#fff"/>
    </g>
    <g>
      <path d="M921.81,789.92h-20.77l-3.44,9.94h-10.98l18.75-52.23h12.18l18.75,52.23h-11.06l-3.44-9.94ZM918.97,781.55l-7.55-21.82-7.55,21.82h15.09Z" fill="#fff"/>
      <path d="M970.23,799.85l-11.51-20.32h-4.93v20.32h-10.46v-52.15h19.58c4.04,0,7.47.71,10.31,2.13,2.84,1.42,4.97,3.34,6.39,5.75,1.42,2.42,2.13,5.12,2.13,8.11,0,3.44-1,6.54-2.99,9.3-1.99,2.76-4.96,4.67-8.89,5.72l12.48,21.15h-12.11ZM953.79,771.68h8.74c2.84,0,4.96-.68,6.35-2.05s2.09-3.28,2.09-5.72-.7-4.25-2.09-5.57c-1.39-1.32-3.51-1.98-6.35-1.98h-8.74v15.32Z" fill="#fff"/>
      <path d="M1001.68,756.14v13.08h17.56v8.29h-17.56v13.82h19.8v8.52h-30.26v-52.23h30.26v8.52h-19.8Z" fill="#fff"/>
      <path d="M1062.95,789.92h-20.77l-3.44,9.94h-10.98l18.75-52.23h12.18l18.75,52.23h-11.06l-3.44-9.94ZM1060.11,781.55l-7.55-21.82-7.55,21.82h15.09Z" fill="#fff"/>
    </g>
    <g>
      <path d="M26.36,323.06c-2.44-1.04-4.36-2.54-5.78-4.5-1.42-1.96-2.15-4.27-2.19-6.94h9.37c.12,1.79.76,3.21,1.91,4.25,1.15,1.04,2.72,1.56,4.72,1.56s3.64-.49,4.81-1.47c1.17-.98,1.75-2.26,1.75-3.84,0-1.29-.4-2.35-1.19-3.19-.79-.83-1.78-1.49-2.97-1.97-1.19-.48-2.82-1.01-4.9-1.59-2.83-.83-5.13-1.66-6.9-2.47-1.77-.81-3.29-2.04-4.56-3.69-1.27-1.65-1.91-3.84-1.91-6.59,0-2.58.65-4.83,1.94-6.75,1.29-1.92,3.1-3.38,5.44-4.4,2.33-1.02,5-1.53,8-1.53,4.5,0,8.15,1.09,10.96,3.28,2.81,2.19,4.36,5.24,4.65,9.15h-9.62c-.08-1.5-.72-2.74-1.91-3.72-1.19-.98-2.76-1.47-4.72-1.47-1.71,0-3.07.44-4.09,1.31-1.02.87-1.53,2.15-1.53,3.81,0,1.17.38,2.14,1.16,2.91.77.77,1.73,1.4,2.87,1.87,1.15.48,2.76,1.03,4.84,1.66,2.83.83,5.14,1.67,6.94,2.5,1.79.83,3.33,2.08,4.62,3.75,1.29,1.67,1.94,3.85,1.94,6.56,0,2.33-.6,4.5-1.81,6.5-1.21,2-2.98,3.59-5.31,4.78-2.33,1.19-5.1,1.78-8.31,1.78-3.04,0-5.78-.52-8.22-1.56Z" fill="#fff"/>
      <path d="M66.31,280.57v43.61h-8.75v-43.61h8.75Z" fill="#fff"/>
      <path d="M104.61,280.57v7.06h-11.62v36.55h-8.75v-36.55h-11.62v-7.06h31.99Z" fill="#fff"/>
      <path d="M140.66,280.57v7.06h-11.62v36.55h-8.75v-36.55h-11.62v-7.06h31.99Z" fill="#fff"/>
      <path d="M155.78,280.57v43.61h-8.75v-43.61h8.75Z" fill="#fff"/>
      <path d="M201.71,324.18h-8.75l-19.81-29.93v29.93h-8.75v-43.67h8.75l19.81,29.99v-29.99h8.75v43.67Z" fill="#fff"/>
      <path d="M240.69,293.69c-1-1.83-2.37-3.23-4.12-4.19-1.75-.96-3.79-1.44-6.12-1.44-2.58,0-4.87.58-6.87,1.75-2,1.17-3.56,2.83-4.69,5-1.12,2.17-1.69,4.67-1.69,7.5s.57,5.46,1.72,7.62c1.15,2.17,2.74,3.83,4.78,5,2.04,1.17,4.41,1.75,7.12,1.75,3.33,0,6.06-.88,8.19-2.66,2.12-1.77,3.52-4.24,4.19-7.4h-15v-6.69h23.62v7.62c-.58,3.04-1.83,5.85-3.75,8.43-1.92,2.58-4.38,4.65-7.4,6.22-3.02,1.56-6.4,2.34-10.15,2.34-4.21,0-8.01-.95-11.4-2.84-3.4-1.9-6.06-4.53-8-7.9-1.94-3.37-2.91-7.21-2.91-11.5s.97-8.13,2.91-11.53c1.94-3.39,4.6-6.04,8-7.93,3.39-1.9,7.17-2.84,11.34-2.84,4.91,0,9.18,1.2,12.81,3.59,3.62,2.4,6.12,5.76,7.5,10.09h-10.06Z" fill="#fff"/>
    </g>
    <g>
      <path d="M58.86,568.82h-20.77l-3.44,9.94h-10.98l18.75-52.23h12.18l18.75,52.23h-11.06l-3.44-9.94ZM56.02,560.45l-7.55-21.82-7.55,21.82h15.09Z" fill="#fff"/>
      <path d="M107.28,578.75l-11.51-20.32h-4.93v20.32h-10.46v-52.15h19.58c4.03,0,7.47.71,10.31,2.13,2.84,1.42,4.97,3.34,6.39,5.75,1.42,2.42,2.13,5.12,2.13,8.11,0,3.44-1,6.54-2.99,9.3-1.99,2.76-4.96,4.67-8.89,5.72l12.48,21.15h-12.1ZM90.84,550.58h8.74c2.84,0,4.96-.68,6.35-2.05,1.39-1.37,2.09-3.27,2.09-5.72s-.7-4.25-2.09-5.57c-1.4-1.32-3.51-1.98-6.35-1.98h-8.74v15.32Z" fill="#fff"/>
      <path d="M138.74,535.04v13.08h17.56v8.29h-17.56v13.82h19.8v8.52h-30.26v-52.23h30.26v8.52h-19.8Z" fill="#fff"/>
      <path d="M200.01,568.82h-20.77l-3.44,9.94h-10.98l18.75-52.23h12.18l18.75,52.23h-11.06l-3.44-9.94ZM197.17,560.45l-7.55-21.82-7.55,21.82h15.09Z" fill="#fff"/>
    </g>
    <g>
      <path d="M70.21,38.14c-.47.87-1.2,1.57-2.2,2.1-1,.53-2.26.8-3.78.8h-3.11v7.11h-3.72v-18.53h6.82c1.43,0,2.65.25,3.66.74,1.01.5,1.77,1.18,2.27,2.04s.76,1.85.76,2.95c0,.99-.23,1.92-.7,2.79ZM66.35,37.33c.5-.47.74-1.13.74-1.98,0-1.81-1.01-2.71-3.03-2.71h-2.95v5.39h2.95c1.03,0,1.79-.23,2.28-.7Z" fill="#fff"/>
      <path d="M88.91,29.61v18.53h-3.72v-7.88h-7.94v7.88h-3.72v-18.53h3.72v7.62h7.94v-7.62h3.72Z" fill="#fff"/>
      <path d="M107.31,29.61l-6.27,12.08v6.45h-3.72v-6.45l-6.29-12.08h4.19l3.98,8.47,3.96-8.47h4.14Z" fill="#fff"/>
      <path d="M112.37,47.67c-1.04-.44-1.85-1.08-2.46-1.91-.6-.83-.91-1.81-.93-2.95h3.98c.05.76.32,1.36.81,1.81s1.15.66,2,.66,1.55-.21,2.04-.62.74-.96.74-1.63c0-.55-.17-1-.5-1.35-.34-.35-.76-.63-1.26-.84s-1.2-.43-2.08-.68c-1.2-.35-2.18-.7-2.93-1.05-.75-.35-1.4-.87-1.94-1.57-.54-.7-.81-1.63-.81-2.8,0-1.1.27-2.05.82-2.87.55-.81,1.32-1.44,2.31-1.87.99-.43,2.12-.65,3.4-.65,1.91,0,3.46.46,4.66,1.39,1.19.93,1.85,2.23,1.98,3.89h-4.09c-.04-.64-.31-1.16-.81-1.58s-1.17-.62-2-.62c-.73,0-1.31.19-1.74.56s-.65.91-.65,1.62c0,.5.16.91.49,1.23.33.33.73.59,1.22.8.49.2,1.17.44,2.06.7,1.2.35,2.19.71,2.95,1.06s1.42.89,1.96,1.59c.55.71.82,1.64.82,2.79,0,.99-.26,1.91-.77,2.76s-1.27,1.53-2.26,2.03-2.17.76-3.53.76c-1.29,0-2.46-.22-3.49-.66Z" fill="#fff"/>
      <path d="M129.34,29.61v18.53h-3.72v-18.53h3.72Z" fill="#fff"/>
      <path d="M133.34,33.96c.82-1.44,1.95-2.57,3.37-3.37,1.42-.8,3.02-1.21,4.79-1.21,2.07,0,3.88.53,5.44,1.59,1.56,1.06,2.65,2.53,3.27,4.41h-4.27c-.42-.88-1.02-1.55-1.79-1.99-.77-.44-1.66-.66-2.67-.66-1.08,0-2.04.25-2.88.76-.84.5-1.5,1.22-1.96,2.14-.47.92-.7,2-.7,3.24s.23,2.3.7,3.23c.47.93,1.12,1.65,1.96,2.15.84.5,1.8.76,2.88.76,1.01,0,1.9-.23,2.67-.68s1.37-1.12,1.79-2h4.27c-.62,1.89-1.7,3.37-3.25,4.42-1.55,1.05-3.37,1.58-5.46,1.58-1.77,0-3.37-.4-4.79-1.21-1.42-.8-2.55-1.92-3.37-3.36s-1.23-3.06-1.23-4.88.41-3.46,1.23-4.9Z" fill="#fff"/>
      <path d="M156.3,47.67c-1.04-.44-1.85-1.08-2.46-1.91-.6-.83-.91-1.81-.93-2.95h3.98c.05.76.32,1.36.81,1.81s1.15.66,2,.66,1.55-.21,2.04-.62.74-.96.74-1.63c0-.55-.17-1-.5-1.35-.34-.35-.76-.63-1.26-.84s-1.2-.43-2.08-.68c-1.2-.35-2.18-.7-2.93-1.05-.75-.35-1.4-.87-1.94-1.57-.54-.7-.81-1.63-.81-2.8,0-1.1.27-2.05.82-2.87.55-.81,1.32-1.44,2.31-1.87.99-.43,2.12-.65,3.4-.65,1.91,0,3.46.46,4.66,1.39,1.19.93,1.85,2.23,1.98,3.89h-4.09c-.04-.64-.31-1.16-.81-1.58s-1.17-.62-2-.62c-.73,0-1.31.19-1.74.56s-.65.91-.65,1.62c0,.5.16.91.49,1.23.33.33.73.59,1.22.8.49.2,1.17.44,2.06.7,1.2.35,2.19.71,2.95,1.06s1.42.89,1.96,1.59c.55.71.82,1.64.82,2.79,0,.99-.26,1.91-.77,2.76s-1.27,1.53-2.26,2.03-2.17.76-3.53.76c-1.29,0-2.46-.22-3.49-.66Z" fill="#fff"/>
      <path d="M187.24,44.61h-7.38l-1.22,3.53h-3.9l6.66-18.56h4.33l6.66,18.56h-3.93l-1.22-3.53ZM186.23,41.64l-2.68-7.75-2.68,7.75h5.36Z" fill="#fff"/>
      <path d="M210.73,48.14h-3.72l-8.42-12.72v12.72h-3.72v-18.56h3.72l8.42,12.74v-12.74h3.72v18.56Z" fill="#fff"/>
      <path d="M226.01,30.76c1.48.76,2.62,1.84,3.42,3.25.81,1.41,1.21,3.04,1.21,4.9s-.4,3.48-1.21,4.87c-.81,1.39-1.95,2.46-3.42,3.23-1.48.76-3.19,1.14-5.14,1.14h-6.48v-18.53h6.48c1.95,0,3.66.38,5.14,1.14ZM225.26,43.39c1.06-1.06,1.59-2.56,1.59-4.49s-.53-3.44-1.59-4.53-2.57-1.63-4.51-1.63h-2.63v12.24h2.63c1.95,0,3.45-.53,4.51-1.59Z" fill="#fff"/>
      <path d="M21.36,76.47h-7.38l-1.22,3.53h-3.9l6.66-18.56h4.33l6.66,18.56h-3.93l-1.22-3.53ZM20.36,73.5l-2.68-7.75-2.68,7.75h5.36Z" fill="#fff"/>
      <path d="M41.82,69.99c-.47.87-1.2,1.57-2.2,2.1-1,.53-2.26.8-3.78.8h-3.11v7.11h-3.72v-18.53h6.82c1.43,0,2.65.25,3.66.74,1.01.5,1.77,1.18,2.27,2.04s.76,1.85.76,2.95c0,.99-.23,1.92-.7,2.79ZM37.96,69.18c.5-.47.74-1.13.74-1.98,0-1.81-1.01-2.71-3.03-2.71h-2.95v5.39h2.95c1.03,0,1.79-.23,2.28-.7Z" fill="#fff"/>
      <path d="M57.96,69.99c-.47.87-1.2,1.57-2.2,2.1-1,.53-2.26.8-3.78.8h-3.11v7.11h-3.72v-18.53h6.82c1.43,0,2.65.25,3.66.74,1.01.5,1.77,1.18,2.27,2.04s.76,1.85.76,2.95c0,.99-.23,1.92-.7,2.79ZM54.1,69.18c.5-.47.74-1.13.74-1.98,0-1.81-1.01-2.71-3.03-2.71h-2.95v5.39h2.95c1.03,0,1.79-.23,2.28-.7Z" fill="#fff"/>
      <path d="M65.01,77.05h6.11v2.95h-9.82v-18.53h3.72v15.58Z" fill="#fff"/>
      <path d="M77.19,61.47v18.53h-3.72v-18.53h3.72Z" fill="#fff"/>
      <path d="M84.57,64.47v4.65h6.24v2.95h-6.24v4.91h7.04v3.03h-10.75v-18.56h10.75v3.03h-7.04Z" fill="#fff"/>
      <path d="M106.59,62.61c1.48.76,2.62,1.84,3.42,3.25.81,1.41,1.21,3.04,1.21,4.9s-.4,3.48-1.21,4.87c-.81,1.39-1.95,2.46-3.42,3.23-1.48.76-3.19,1.14-5.14,1.14h-6.48v-18.53h6.48c1.95,0,3.66.38,5.14,1.14ZM105.84,75.25c1.06-1.06,1.59-2.56,1.59-4.49s-.53-3.44-1.59-4.53-2.57-1.63-4.51-1.63h-2.63v12.24h2.63c1.95,0,3.45-.53,4.51-1.59Z" fill="#fff"/>
      <path d="M124.05,64.47v4.65h6.24v2.95h-6.24v4.91h7.04v3.03h-10.75v-18.56h10.75v3.03h-7.04Z" fill="#fff"/>
      <path d="M138.17,77.05h6.11v2.95h-9.82v-18.53h3.72v15.58Z" fill="#fff"/>
      <path d="M150.35,64.47v4.65h6.24v2.95h-6.24v4.91h7.04v3.03h-10.75v-18.56h10.75v3.03h-7.04Z" fill="#fff"/>
      <path d="M161.09,65.81c.82-1.44,1.95-2.57,3.37-3.37,1.42-.8,3.02-1.21,4.79-1.21,2.07,0,3.88.53,5.44,1.59,1.56,1.06,2.65,2.53,3.27,4.41h-4.27c-.42-.88-1.02-1.55-1.79-1.99-.77-.44-1.66-.66-2.67-.66-1.08,0-2.04.25-2.88.76-.84.5-1.5,1.22-1.96,2.14-.47.92-.7,2-.7,3.24s.23,2.3.7,3.23c.47.93,1.12,1.65,1.96,2.15.84.5,1.8.76,2.88.76,1.01,0,1.9-.23,2.67-.68s1.37-1.12,1.79-2h4.27c-.62,1.89-1.7,3.37-3.25,4.42-1.55,1.05-3.37,1.58-5.46,1.58-1.77,0-3.37-.4-4.79-1.21-1.42-.8-2.55-1.92-3.37-3.36s-1.23-3.06-1.23-4.88.41-3.46,1.23-4.9Z" fill="#fff"/>
      <path d="M193.76,61.47v3h-4.94v15.53h-3.72v-15.53h-4.94v-3h13.59Z" fill="#fff"/>
      <path d="M206.02,80l-4.09-7.22h-1.75v7.22h-3.72v-18.53h6.96c1.43,0,2.65.25,3.66.76s1.77,1.19,2.27,2.04.76,1.82.76,2.88c0,1.22-.35,2.32-1.06,3.31-.71.98-1.76,1.66-3.16,2.03l4.43,7.51h-4.3ZM200.18,69.99h3.11c1.01,0,1.76-.24,2.26-.73.5-.49.74-1.16.74-2.03s-.25-1.51-.74-1.98c-.5-.47-1.25-.7-2.26-.7h-3.11v5.44Z" fill="#fff"/>
      <path d="M217.2,61.47v18.53h-3.72v-18.53h3.72Z" fill="#fff"/>
      <path d="M221.19,65.81c.82-1.44,1.95-2.57,3.37-3.37,1.42-.8,3.02-1.21,4.79-1.21,2.07,0,3.88.53,5.44,1.59,1.56,1.06,2.65,2.53,3.27,4.41h-4.27c-.42-.88-1.02-1.55-1.79-1.99-.77-.44-1.66-.66-2.67-.66-1.08,0-2.04.25-2.88.76-.84.5-1.5,1.22-1.96,2.14-.47.92-.7,2-.7,3.24s.23,2.3.7,3.23c.47.93,1.12,1.65,1.96,2.15.84.5,1.8.76,2.88.76,1.01,0,1.9-.23,2.67-.68s1.37-1.12,1.79-2h4.27c-.62,1.89-1.7,3.37-3.25,4.42-1.55,1.05-3.37,1.58-5.46,1.58-1.77,0-3.37-.4-4.79-1.21-1.42-.8-2.55-1.92-3.37-3.36s-1.23-3.06-1.23-4.88.41-3.46,1.23-4.9Z" fill="#fff"/>
      <path d="M244.97,61.47v18.53h-3.72v-18.53h3.72Z" fill="#fff"/>
      <path d="M261.24,61.47v3h-4.94v15.53h-3.72v-15.53h-4.94v-3h13.59Z" fill="#fff"/>
      <path d="M278.68,61.47l-6.27,12.08v6.45h-3.72v-6.45l-6.29-12.08h4.19l3.98,8.47,3.96-8.47h4.14Z" fill="#fff"/>
      <path d="M125,108.91h6.11v2.95h-9.82v-18.53h3.72v15.58Z" fill="#fff"/>
      <path d="M144.83,108.33h-7.38l-1.22,3.53h-3.9l6.66-18.56h4.33l6.66,18.56h-3.93l-1.22-3.53ZM143.82,105.35l-2.68-7.75-2.68,7.75h5.36Z" fill="#fff"/>
      <path d="M165.57,103.92c.67.85,1.01,1.82,1.01,2.92,0,.99-.24,1.86-.73,2.62-.49.75-1.19,1.34-2.11,1.77-.92.42-2.01.64-3.27.64h-7.99v-18.53h7.65c1.26,0,2.34.2,3.25.61.91.41,1.6.97,2.07,1.7.47.73.7,1.55.7,2.47,0,1.08-.29,1.98-.86,2.71-.58.73-1.34,1.24-2.3,1.54,1.04.19,1.9.72,2.58,1.57ZM156.19,100.97h3.4c.88,0,1.57-.2,2.04-.6.48-.4.72-.97.72-1.71s-.24-1.32-.72-1.73c-.48-.41-1.16-.61-2.04-.61h-3.4v4.65ZM162.05,108.19c.5-.42.76-1.03.76-1.81s-.27-1.42-.8-1.87c-.53-.45-1.25-.68-2.15-.68h-3.66v4.99h3.74c.9,0,1.61-.21,2.11-.64Z" fill="#fff"/>
    </g>
    <g>
      <path d="M477.3,34.59c1.35-2.37,3.21-4.22,5.55-5.55,2.35-1.33,4.98-1.99,7.89-1.99,3.41,0,6.4.87,8.96,2.62,2.56,1.75,4.36,4.17,5.38,7.26h-7.04c-.7-1.46-1.68-2.55-2.95-3.28s-2.73-1.09-4.39-1.09c-1.78,0-3.36.42-4.74,1.25-1.38.83-2.46,2-3.23,3.52-.77,1.52-1.16,3.29-1.16,5.33s.39,3.78,1.16,5.31c.77,1.53,1.85,2.71,3.23,3.54,1.38.83,2.96,1.25,4.74,1.25,1.66,0,3.13-.37,4.39-1.11,1.27-.74,2.25-1.84,2.95-3.3h7.04c-1.02,3.12-2.81,5.54-5.35,7.28-2.55,1.73-5.54,2.6-8.98,2.6-2.91,0-5.54-.66-7.89-1.99-2.35-1.33-4.2-3.17-5.55-5.53s-2.03-5.04-2.03-8.04.68-5.69,2.03-8.06Z" fill="#fff"/>
      <path d="M535.63,27.45v30.51h-6.12v-12.98h-13.07v12.98h-6.12v-30.51h6.12v12.54h13.07v-12.54h6.12Z" fill="#fff"/>
      <path d="M547.78,32.38v7.65h10.27v4.85h-10.27v8.09h11.58v4.98h-17.7v-30.55h17.7v4.98h-11.58Z" fill="#fff"/>
      <path d="M598.18,27.45v30.51h-6.12v-19.84l-8.17,19.84h-4.63l-8.22-19.84v19.84h-6.12v-30.51h6.95l9.7,22.69,9.7-22.69h6.91Z" fill="#fff"/>
      <path d="M610.33,27.45v30.51h-6.12v-30.51h6.12Z" fill="#fff"/>
      <path d="M621.15,57.17c-1.7-.73-3.05-1.78-4.04-3.15-.99-1.37-1.5-2.99-1.53-4.85h6.56c.09,1.25.53,2.24,1.33,2.97.8.73,1.9,1.09,3.3,1.09s2.55-.34,3.37-1.03c.82-.68,1.22-1.58,1.22-2.69,0-.9-.28-1.65-.83-2.23-.55-.58-1.25-1.04-2.08-1.38s-1.97-.71-3.43-1.11c-1.98-.58-3.59-1.16-4.83-1.73-1.24-.57-2.3-1.43-3.19-2.58-.89-1.15-1.33-2.69-1.33-4.61,0-1.81.45-3.38,1.36-4.72.9-1.34,2.17-2.37,3.8-3.08,1.63-.71,3.5-1.07,5.59-1.07,3.15,0,5.7.76,7.67,2.29,1.97,1.53,3.05,3.67,3.26,6.4h-6.73c-.06-1.05-.5-1.92-1.33-2.6-.83-.68-1.93-1.03-3.3-1.03-1.2,0-2.15.31-2.86.92-.71.61-1.07,1.5-1.07,2.67,0,.82.27,1.49.81,2.03.54.54,1.21.98,2.01,1.31.8.33,1.93.72,3.39,1.16,1.98.58,3.6,1.17,4.85,1.75s2.33,1.46,3.23,2.62c.9,1.17,1.35,2.7,1.35,4.59,0,1.63-.42,3.15-1.27,4.55-.85,1.4-2.08,2.51-3.72,3.34-1.63.83-3.57,1.25-5.81,1.25-2.13,0-4.04-.36-5.75-1.09Z" fill="#fff"/>
      <path d="M663.74,27.45v4.94h-8.13v25.57h-6.12v-25.57h-8.13v-4.94h22.38Z" fill="#fff"/>
      <path d="M683.94,57.96l-6.73-11.89h-2.89v11.89h-6.12v-30.51h11.45c2.36,0,4.37.42,6.03,1.25,1.66.83,2.91,1.95,3.74,3.37.83,1.41,1.25,2.99,1.25,4.74,0,2.01-.58,3.82-1.75,5.44-1.17,1.62-2.9,2.73-5.2,3.34l7.3,12.37h-7.08ZM674.32,41.48h5.11c1.66,0,2.9-.4,3.72-1.2.82-.8,1.22-1.92,1.22-3.34s-.41-2.48-1.22-3.26c-.82-.77-2.05-1.16-3.72-1.16h-5.11v8.96Z" fill="#fff"/>
      <path d="M720.48,27.45l-10.32,19.89v10.62h-6.12v-10.62l-10.36-19.89h6.91l6.56,13.94,6.51-13.94h6.82Z" fill="#fff"/>
      <path d="M566.77,105.56h10.05v4.85h-16.17v-30.51h6.12v25.66Z" fill="#fff"/>
      <path d="M599.42,104.59h-12.15l-2.01,5.81h-6.43l10.97-30.55h7.12l10.97,30.55h-6.47l-2.01-5.81ZM597.76,99.7l-4.41-12.76-4.42,12.76h8.83Z" fill="#fff"/>
      <path d="M633.56,97.34c1.11,1.4,1.66,3,1.66,4.81,0,1.63-.4,3.07-1.2,4.31-.8,1.24-1.96,2.21-3.48,2.91-1.52.7-3.31,1.05-5.38,1.05h-13.16v-30.51h12.59c2.07,0,3.85.34,5.35,1.01,1.5.67,2.64,1.6,3.41,2.8.77,1.2,1.16,2.55,1.16,4.06,0,1.78-.47,3.26-1.42,4.46-.95,1.2-2.21,2.04-3.78,2.54,1.72.32,3.13,1.18,4.24,2.58ZM618.13,92.49h5.6c1.46,0,2.58-.33,3.37-.98.79-.66,1.18-1.6,1.18-2.82s-.39-2.17-1.18-2.84c-.79-.67-1.91-1-3.37-1h-5.6v7.65ZM627.77,104.38c.83-.7,1.25-1.69,1.25-2.97s-.44-2.34-1.31-3.08-2.05-1.11-3.54-1.11h-6.03v8.22h6.16c1.49,0,2.64-.35,3.47-1.05Z" fill="#fff"/>
    </g>
    <g>
      <path d="M382.69,1019.58c1.04-1.82,2.46-3.24,4.25-4.25,1.8-1.01,3.81-1.52,6.04-1.52,2.61,0,4.9.67,6.86,2.01,1.96,1.34,3.34,3.19,4.12,5.56h-5.39c-.54-1.12-1.29-1.95-2.26-2.51-.97-.56-2.09-.84-3.36-.84-1.36,0-2.57.32-3.63.95-1.06.64-1.89,1.54-2.48,2.7-.59,1.16-.89,2.52-.89,4.08s.3,2.9.89,4.07c.59,1.17,1.42,2.08,2.48,2.71,1.06.64,2.27.95,3.63.95,1.27,0,2.39-.28,3.36-.85.97-.57,1.72-1.41,2.26-2.53h5.39c-.78,2.39-2.15,4.25-4.1,5.57-1.95,1.33-4.25,1.99-6.88,1.99-2.23,0-4.25-.51-6.04-1.52-1.8-1.02-3.21-2.43-4.25-4.24s-1.56-3.86-1.56-6.16.52-4.36,1.56-6.18Z" fill="#fff"/>
      <path d="M412.67,1033.76h7.7v3.72h-12.39v-23.37h4.69v19.65Z" fill="#fff"/>
      <path d="M437.68,1033.02h-9.31l-1.54,4.45h-4.92l8.4-23.4h5.46l8.4,23.4h-4.96l-1.54-4.45ZM436.41,1029.27l-3.38-9.78-3.38,9.78h6.76Z" fill="#fff"/>
      <path d="M450.99,1036.87c-1.31-.56-2.34-1.36-3.1-2.41-.76-1.05-1.15-2.29-1.17-3.72h5.02c.07.96.41,1.72,1.02,2.28.61.56,1.46.84,2.53.84s1.95-.26,2.58-.79c.62-.52.94-1.21.94-2.06,0-.69-.21-1.26-.64-1.71-.42-.45-.95-.8-1.59-1.05-.64-.26-1.51-.54-2.63-.85-1.52-.45-2.75-.89-3.7-1.32s-1.76-1.09-2.44-1.98c-.68-.88-1.02-2.06-1.02-3.53,0-1.38.35-2.59,1.04-3.62.69-1.03,1.66-1.81,2.91-2.36,1.25-.55,2.68-.82,4.29-.82,2.41,0,4.37.59,5.88,1.76,1.51,1.17,2.34,2.81,2.49,4.9h-5.16c-.04-.8-.39-1.47-1.02-1.99-.64-.52-1.48-.79-2.53-.79-.92,0-1.65.23-2.19.7s-.82,1.15-.82,2.04c0,.62.21,1.14.62,1.56.41.41.93.75,1.54,1,.61.26,1.48.55,2.59.89,1.52.45,2.76.89,3.72,1.34.96.45,1.79,1.12,2.48,2.01.69.89,1.04,2.07,1.04,3.52,0,1.25-.32,2.41-.97,3.48-.65,1.07-1.6,1.93-2.85,2.56-1.25.64-2.73.95-4.45.95-1.63,0-3.1-.28-4.4-.84Z" fill="#fff"/>
      <path d="M471.38,1036.87c-1.31-.56-2.34-1.36-3.1-2.41-.76-1.05-1.15-2.29-1.17-3.72h5.02c.07.96.41,1.72,1.02,2.28.61.56,1.46.84,2.53.84s1.95-.26,2.58-.79c.62-.52.94-1.21.94-2.06,0-.69-.21-1.26-.64-1.71-.42-.45-.95-.8-1.59-1.05-.64-.26-1.51-.54-2.63-.85-1.52-.45-2.75-.89-3.7-1.32s-1.76-1.09-2.44-1.98c-.68-.88-1.02-2.06-1.02-3.53,0-1.38.35-2.59,1.04-3.62.69-1.03,1.66-1.81,2.91-2.36,1.25-.55,2.68-.82,4.29-.82,2.41,0,4.37.59,5.88,1.76,1.51,1.17,2.34,2.81,2.49,4.9h-5.16c-.04-.8-.39-1.47-1.02-1.99-.64-.52-1.48-.79-2.53-.79-.92,0-1.65.23-2.19.7s-.82,1.15-.82,2.04c0,.62.21,1.14.62,1.56.41.41.93.75,1.54,1,.61.26,1.48.55,2.59.89,1.52.45,2.76.89,3.72,1.34.96.45,1.79,1.12,2.48,2.01.69.89,1.04,2.07,1.04,3.52,0,1.25-.32,2.41-.97,3.48-.65,1.07-1.6,1.93-2.85,2.56-1.25.64-2.73.95-4.45.95-1.63,0-3.1-.28-4.4-.84Z" fill="#fff"/>
      <path d="M500.15,1037.47l-5.16-9.11h-2.21v9.11h-4.69v-23.37h8.77c1.81,0,3.35.32,4.62.95,1.27.64,2.23,1.5,2.86,2.58.64,1.08.95,2.29.95,3.63,0,1.54-.45,2.93-1.34,4.17-.89,1.24-2.22,2.09-3.98,2.56l5.59,9.47h-5.42ZM492.79,1024.85h3.92c1.27,0,2.22-.31,2.85-.92.62-.61.94-1.47.94-2.56s-.31-1.9-.94-2.49c-.62-.59-1.57-.89-2.85-.89h-3.92v6.86Z" fill="#fff"/>
      <path d="M514.38,1036.17c-1.83-1.03-3.28-2.45-4.35-4.27-1.07-1.82-1.61-3.88-1.61-6.18s.54-4.32,1.61-6.14c1.07-1.82,2.52-3.24,4.35-4.27,1.83-1.03,3.84-1.54,6.03-1.54s4.22.51,6.04,1.54c1.82,1.03,3.26,2.45,4.32,4.27,1.06,1.82,1.59,3.87,1.59,6.14s-.53,4.36-1.59,6.18c-1.06,1.82-2.51,3.24-4.34,4.27s-3.84,1.54-6.03,1.54-4.2-.51-6.03-1.54ZM524.12,1032.57c1.07-.64,1.91-1.55,2.51-2.73s.9-2.56.9-4.12-.3-2.93-.9-4.1c-.6-1.17-1.44-2.07-2.51-2.69-1.07-.62-2.31-.94-3.72-.94s-2.65.31-3.73.94c-1.08.62-1.93,1.52-2.53,2.69-.6,1.17-.9,2.54-.9,4.1s.3,2.94.9,4.12,1.44,2.09,2.53,2.73c1.08.64,2.33.95,3.73.95s2.64-.32,3.72-.95Z" fill="#fff"/>
      <path d="M540.66,1036.17c-1.83-1.03-3.28-2.45-4.35-4.27-1.07-1.82-1.61-3.88-1.61-6.18s.54-4.32,1.61-6.14c1.07-1.82,2.52-3.24,4.35-4.27,1.83-1.03,3.84-1.54,6.03-1.54s4.22.51,6.04,1.54c1.82,1.03,3.26,2.45,4.32,4.27,1.06,1.82,1.59,3.87,1.59,6.14s-.53,4.36-1.59,6.18c-1.06,1.82-2.51,3.24-4.34,4.27s-3.84,1.54-6.03,1.54-4.2-.51-6.03-1.54ZM550.4,1032.57c1.07-.64,1.91-1.55,2.51-2.73s.9-2.56.9-4.12-.3-2.93-.9-4.1c-.6-1.17-1.44-2.07-2.51-2.69-1.07-.62-2.31-.94-3.72-.94s-2.65.31-3.73.94c-1.08.62-1.93,1.52-2.53,2.69-.6,1.17-.9,2.54-.9,4.1s.3,2.94.9,4.12,1.44,2.09,2.53,2.73c1.08.64,2.33.95,3.73.95s2.64-.32,3.72-.95Z" fill="#fff"/>
      <path d="M587.6,1014.1v23.37h-4.69v-15.2l-6.26,15.2h-3.55l-6.29-15.2v15.2h-4.69v-23.37h5.32l7.43,17.38,7.43-17.38h5.29Z" fill="#fff"/>
      <path d="M599.45,1032.72v-3.68l10.95-15.67h5.46v15.27h2.95v4.08h-2.95v4.75h-4.69v-4.75h-11.72ZM611.47,1018.39l-6.86,10.25h6.86v-10.25Z" fill="#fff"/>
    </g>
    <g>
      <path d="M846.73,1019.58c1.04-1.82,2.46-3.24,4.25-4.25,1.8-1.01,3.81-1.52,6.04-1.52,2.61,0,4.9.67,6.86,2.01,1.96,1.34,3.34,3.19,4.12,5.56h-5.39c-.54-1.12-1.29-1.95-2.26-2.51-.97-.56-2.09-.84-3.36-.84-1.36,0-2.57.32-3.63.95-1.06.64-1.89,1.54-2.48,2.7-.59,1.16-.89,2.52-.89,4.08s.3,2.9.89,4.07c.59,1.17,1.42,2.08,2.48,2.71,1.06.64,2.27.95,3.63.95,1.27,0,2.39-.28,3.36-.85.97-.57,1.72-1.41,2.26-2.53h5.39c-.78,2.39-2.15,4.25-4.1,5.57-1.95,1.33-4.25,1.99-6.88,1.99-2.23,0-4.25-.51-6.04-1.52-1.8-1.02-3.21-2.43-4.25-4.24s-1.56-3.86-1.56-6.16.52-4.36,1.56-6.18Z" fill="#fff"/>
      <path d="M876.71,1033.76h7.7v3.72h-12.39v-23.37h4.69v19.65Z" fill="#fff"/>
      <path d="M901.72,1033.02h-9.31l-1.54,4.45h-4.92l8.4-23.4h5.46l8.4,23.4h-4.96l-1.54-4.45ZM900.45,1029.27l-3.38-9.78-3.38,9.78h6.76Z" fill="#fff"/>
      <path d="M915.03,1036.87c-1.31-.56-2.34-1.36-3.1-2.41-.76-1.05-1.15-2.29-1.17-3.72h5.02c.07.96.41,1.72,1.02,2.28.61.56,1.46.84,2.53.84s1.95-.26,2.58-.79c.62-.52.94-1.21.94-2.06,0-.69-.21-1.26-.64-1.71-.42-.45-.95-.8-1.59-1.05-.64-.26-1.51-.54-2.63-.85-1.52-.45-2.75-.89-3.7-1.32s-1.76-1.09-2.44-1.98c-.68-.88-1.02-2.06-1.02-3.53,0-1.38.35-2.59,1.04-3.62.69-1.03,1.66-1.81,2.91-2.36,1.25-.55,2.68-.82,4.29-.82,2.41,0,4.37.59,5.88,1.76,1.51,1.17,2.34,2.81,2.49,4.9h-5.16c-.04-.8-.39-1.47-1.02-1.99-.64-.52-1.48-.79-2.53-.79-.92,0-1.65.23-2.19.7s-.82,1.15-.82,2.04c0,.62.21,1.14.62,1.56.41.41.93.75,1.54,1,.61.26,1.48.55,2.59.89,1.52.45,2.76.89,3.72,1.34.96.45,1.79,1.12,2.48,2.01.69.89,1.04,2.07,1.04,3.52,0,1.25-.32,2.41-.97,3.48-.65,1.07-1.6,1.93-2.85,2.56-1.25.64-2.73.95-4.45.95-1.63,0-3.1-.28-4.4-.84Z" fill="#fff"/>
      <path d="M935.42,1036.87c-1.31-.56-2.34-1.36-3.1-2.41-.76-1.05-1.15-2.29-1.17-3.72h5.02c.07.96.41,1.72,1.02,2.28.61.56,1.46.84,2.53.84s1.95-.26,2.58-.79c.62-.52.94-1.21.94-2.06,0-.69-.21-1.26-.64-1.71-.42-.45-.95-.8-1.59-1.05-.64-.26-1.51-.54-2.63-.85-1.52-.45-2.75-.89-3.7-1.32s-1.76-1.09-2.44-1.98c-.68-.88-1.02-2.06-1.02-3.53,0-1.38.35-2.59,1.04-3.62.69-1.03,1.66-1.81,2.91-2.36,1.25-.55,2.68-.82,4.29-.82,2.41,0,4.37.59,5.88,1.76,1.51,1.17,2.34,2.81,2.49,4.9h-5.16c-.04-.8-.39-1.47-1.02-1.99-.64-.52-1.48-.79-2.53-.79-.92,0-1.65.23-2.19.7s-.82,1.15-.82,2.04c0,.62.21,1.14.62,1.56.41.41.93.75,1.54,1,.61.26,1.48.55,2.59.89,1.52.45,2.76.89,3.72,1.34.96.45,1.79,1.12,2.48,2.01.69.89,1.04,2.07,1.04,3.52,0,1.25-.32,2.41-.97,3.48-.65,1.07-1.6,1.93-2.85,2.56-1.25.64-2.73.95-4.45.95-1.63,0-3.1-.28-4.4-.84Z" fill="#fff"/>
      <path d="M964.19,1037.47l-5.16-9.11h-2.21v9.11h-4.69v-23.37h8.77c1.81,0,3.35.32,4.62.95s2.23,1.5,2.86,2.58c.64,1.08.95,2.29.95,3.63,0,1.54-.45,2.93-1.34,4.17-.89,1.24-2.22,2.09-3.98,2.56l5.59,9.47h-5.42ZM956.83,1024.85h3.92c1.27,0,2.22-.31,2.85-.92.62-.61.94-1.47.94-2.56s-.31-1.9-.94-2.49c-.62-.59-1.57-.89-2.85-.89h-3.92v6.86Z" fill="#fff"/>
      <path d="M978.42,1036.17c-1.83-1.03-3.28-2.45-4.35-4.27-1.07-1.82-1.61-3.88-1.61-6.18s.54-4.32,1.61-6.14c1.07-1.82,2.52-3.24,4.35-4.27,1.83-1.03,3.84-1.54,6.03-1.54s4.22.51,6.04,1.54c1.82,1.03,3.26,2.45,4.32,4.27,1.06,1.82,1.59,3.87,1.59,6.14s-.53,4.36-1.59,6.18c-1.06,1.82-2.51,3.24-4.34,4.27s-3.84,1.54-6.03,1.54-4.2-.51-6.03-1.54ZM988.16,1032.57c1.07-.64,1.91-1.55,2.51-2.73.6-1.18.9-2.56.9-4.12s-.3-2.93-.9-4.1c-.6-1.17-1.44-2.07-2.51-2.69s-2.31-.94-3.72-.94-2.65.31-3.73.94c-1.08.62-1.93,1.52-2.53,2.69-.6,1.17-.9,2.54-.9,4.1s.3,2.94.9,4.12,1.44,2.09,2.53,2.73c1.08.64,2.33.95,3.73.95s2.64-.32,3.72-.95Z" fill="#fff"/>
      <path d="M1004.7,1036.17c-1.83-1.03-3.28-2.45-4.35-4.27-1.07-1.82-1.61-3.88-1.61-6.18s.54-4.32,1.61-6.14c1.07-1.82,2.52-3.24,4.35-4.27,1.83-1.03,3.84-1.54,6.03-1.54s4.22.51,6.04,1.54c1.82,1.03,3.26,2.45,4.32,4.27,1.06,1.82,1.59,3.87,1.59,6.14s-.53,4.36-1.59,6.18c-1.06,1.82-2.5,3.24-4.33,4.27s-3.84,1.54-6.03,1.54-4.2-.51-6.03-1.54ZM1014.44,1032.57c1.07-.64,1.91-1.55,2.51-2.73.6-1.18.9-2.56.9-4.12s-.3-2.93-.9-4.1c-.6-1.17-1.44-2.07-2.51-2.69-1.07-.62-2.31-.94-3.72-.94s-2.65.31-3.73.94-1.92,1.52-2.53,2.69c-.6,1.17-.9,2.54-.9,4.1s.3,2.94.9,4.12,1.45,2.09,2.53,2.73c1.08.64,2.33.95,3.73.95s2.64-.32,3.72-.95Z" fill="#fff"/>
      <path d="M1051.64,1014.1v23.37h-4.69v-15.2l-6.26,15.2h-3.55l-6.29-15.2v15.2h-4.69v-23.37h5.32l7.43,17.38,7.43-17.38h5.29Z" fill="#fff"/>
      <path d="M1066.12,1014.32c1.46-1.22,3.39-1.83,5.77-1.83,1.63,0,3.02.29,4.18.85,1.16.57,2.04,1.34,2.63,2.31.59.97.89,2.07.89,3.3,0,1.41-.36,2.59-1.09,3.57-.73.97-1.59,1.62-2.59,1.96v.13c1.29.4,2.3,1.12,3.03,2.14.72,1.03,1.09,2.34,1.09,3.95,0,1.34-.31,2.53-.92,3.58-.61,1.05-1.52,1.87-2.71,2.46-1.19.59-2.63.89-4.3.89-2.52,0-4.58-.64-6.16-1.91-1.58-1.27-2.42-3.15-2.51-5.62h4.55c.04,1.09.42,1.97,1.12,2.63s1.67.99,2.9.99c1.14,0,2.01-.32,2.63-.95.61-.64.92-1.46.92-2.46,0-1.34-.42-2.3-1.27-2.88-.85-.58-2.17-.87-3.95-.87h-.97v-3.85h.97c3.17,0,4.75-1.06,4.75-3.18,0-.96-.29-1.71-.85-2.24-.57-.54-1.39-.8-2.46-.8s-1.86.28-2.43.85c-.57.57-.9,1.29-.99,2.16h-4.59c.11-2.23.9-3.96,2.36-5.17Z" fill="#fff"/>
    </g>
    <g>
      <path d="M11.21,1020.8c.77-1.34,1.81-2.39,3.14-3.14,1.33-.75,2.81-1.12,4.46-1.12,1.93,0,3.61.49,5.06,1.48,1.45.99,2.46,2.35,3.04,4.1h-3.98c-.4-.82-.95-1.44-1.67-1.85-.72-.41-1.54-.62-2.48-.62-1,0-1.9.23-2.68.7-.78.47-1.39,1.13-1.83,1.99-.44.86-.65,1.86-.65,3.01s.22,2.14.65,3c.44.86,1.05,1.53,1.83,2,.78.47,1.67.7,2.68.7.94,0,1.77-.21,2.48-.63.72-.42,1.27-1.04,1.67-1.86h3.98c-.58,1.76-1.58,3.13-3.03,4.11-1.44.98-3.13,1.47-5.08,1.47-1.65,0-3.13-.38-4.46-1.12-1.33-.75-2.37-1.79-3.14-3.12-.77-1.33-1.15-2.85-1.15-4.54s.38-3.21,1.15-4.56Z" fill="#fff"/>
      <path d="M33.33,1031.26h5.68v2.74h-9.14v-17.24h3.46v14.5Z" fill="#fff"/>
      <path d="M51.78,1030.72h-6.87l-1.14,3.29h-3.63l6.2-17.26h4.03l6.2,17.26h-3.66l-1.14-3.29ZM50.84,1027.95l-2.49-7.21-2.49,7.21h4.99Z" fill="#fff"/>
      <path d="M61.6,1033.56c-.96-.41-1.73-1-2.28-1.78-.56-.77-.85-1.69-.86-2.74h3.7c.05.71.3,1.27.75,1.68.45.41,1.07.62,1.86.62s1.44-.19,1.9-.58c.46-.39.69-.89.69-1.52,0-.51-.16-.93-.47-1.26-.31-.33-.7-.59-1.17-.78-.47-.19-1.12-.4-1.94-.63-1.12-.33-2.03-.65-2.73-.98-.7-.32-1.3-.81-1.8-1.46-.5-.65-.75-1.52-.75-2.61,0-1.02.25-1.91.77-2.67.51-.76,1.23-1.34,2.15-1.74.92-.4,1.98-.61,3.16-.61,1.78,0,3.22.43,4.33,1.3s1.72,2.07,1.84,3.62h-3.8c-.03-.59-.28-1.08-.75-1.47-.47-.39-1.09-.58-1.86-.58-.68,0-1.21.17-1.62.52-.4.35-.6.85-.6,1.51,0,.46.15.84.46,1.15s.68.55,1.14.74c.45.19,1.09.41,1.91.66,1.12.33,2.03.66,2.74.99.71.33,1.32.82,1.83,1.48.51.66.77,1.52.77,2.59,0,.92-.24,1.78-.72,2.57-.48.79-1.18,1.42-2.1,1.89-.92.47-2.02.7-3.29.7-1.2,0-2.28-.21-3.25-.62Z" fill="#fff"/>
      <path d="M76.64,1033.56c-.96-.41-1.73-1-2.28-1.78-.56-.77-.85-1.69-.86-2.74h3.7c.05.71.3,1.27.75,1.68.45.41,1.07.62,1.86.62s1.44-.19,1.9-.58c.46-.39.69-.89.69-1.52,0-.51-.16-.93-.47-1.26-.31-.33-.7-.59-1.17-.78-.47-.19-1.12-.4-1.94-.63-1.12-.33-2.03-.65-2.73-.98-.7-.32-1.3-.81-1.8-1.46-.5-.65-.75-1.52-.75-2.61,0-1.02.25-1.91.77-2.67.51-.76,1.23-1.34,2.15-1.74.92-.4,1.98-.61,3.16-.61,1.78,0,3.22.43,4.33,1.3s1.72,2.07,1.84,3.62h-3.8c-.03-.59-.28-1.08-.75-1.47-.47-.39-1.09-.58-1.86-.58-.68,0-1.21.17-1.62.52-.4.35-.6.85-.6,1.51,0,.46.15.84.46,1.15s.68.55,1.14.74c.45.19,1.09.41,1.91.66,1.12.33,2.03.66,2.74.99.71.33,1.32.82,1.83,1.48.51.66.77,1.52.77,2.59,0,.92-.24,1.78-.72,2.57-.48.79-1.18,1.42-2.1,1.89-.92.47-2.02.7-3.29.7-1.2,0-2.28-.21-3.25-.62Z" fill="#fff"/>
      <path d="M97.87,1034l-3.8-6.72h-1.63v6.72h-3.46v-17.24h6.47c1.33,0,2.47.23,3.41.7.94.47,1.64,1.1,2.11,1.9.47.8.7,1.69.7,2.68,0,1.14-.33,2.16-.99,3.08-.66.91-1.64,1.54-2.94,1.89l4.12,6.99h-4ZM92.43,1024.69h2.89c.94,0,1.64-.23,2.1-.68s.69-1.08.69-1.89-.23-1.4-.69-1.84-1.16-.65-2.1-.65h-2.89v5.06Z" fill="#fff"/>
      <path d="M108.36,1033.04c-1.35-.76-2.42-1.81-3.21-3.15-.79-1.34-1.19-2.86-1.19-4.56s.4-3.19,1.19-4.53c.79-1.34,1.86-2.39,3.21-3.15,1.35-.76,2.83-1.14,4.45-1.14s3.12.38,4.46,1.14c1.34.76,2.4,1.81,3.19,3.15.78,1.34,1.17,2.85,1.17,4.53s-.39,3.21-1.17,4.56c-.78,1.34-1.85,2.39-3.2,3.15-1.35.76-2.83,1.14-4.45,1.14s-3.1-.38-4.45-1.14ZM115.55,1030.39c.79-.47,1.41-1.14,1.85-2.01.44-.87.67-1.89.67-3.04s-.22-2.16-.67-3.03c-.44-.86-1.06-1.53-1.85-1.99-.79-.46-1.7-.69-2.74-.69s-1.96.23-2.75.69c-.8.46-1.42,1.12-1.86,1.99-.44.86-.67,1.87-.67,3.03s.22,2.17.67,3.04c.44.87,1.07,1.54,1.86,2.01.8.47,1.72.7,2.75.7s1.95-.24,2.74-.7Z" fill="#fff"/>
      <path d="M127.75,1033.04c-1.35-.76-2.42-1.81-3.21-3.15-.79-1.34-1.19-2.86-1.19-4.56s.4-3.19,1.19-4.53c.79-1.34,1.86-2.39,3.21-3.15,1.35-.76,2.83-1.14,4.45-1.14s3.12.38,4.46,1.14c1.34.76,2.4,1.81,3.19,3.15.78,1.34,1.17,2.85,1.17,4.53s-.39,3.21-1.17,4.56c-.78,1.34-1.85,2.39-3.2,3.15-1.35.76-2.83,1.14-4.45,1.14s-3.1-.38-4.45-1.14ZM134.94,1030.39c.79-.47,1.41-1.14,1.85-2.01.44-.87.67-1.89.67-3.04s-.22-2.16-.67-3.03c-.44-.86-1.06-1.53-1.85-1.99-.79-.46-1.7-.69-2.74-.69s-1.96.23-2.75.69c-.8.46-1.42,1.12-1.86,1.99-.44.86-.67,1.87-.67,3.03s.22,2.17.67,3.04c.44.87,1.07,1.54,1.86,2.01.8.47,1.72.7,2.75.7s1.95-.24,2.74-.7Z" fill="#fff"/>
      <path d="M162.38,1016.77v17.24h-3.46v-11.21l-4.62,11.21h-2.62l-4.64-11.21v11.21h-3.46v-17.24h3.93l5.48,12.82,5.48-12.82h3.9Z" fill="#fff"/>
      <path d="M183.37,1018.99h-8v4.22c.35-.43.84-.78,1.48-1.05s1.33-.41,2.05-.41c1.32,0,2.4.29,3.24.86s1.45,1.31,1.83,2.21c.38.9.57,1.86.57,2.88,0,1.89-.54,3.42-1.62,4.57-1.08,1.15-2.61,1.73-4.61,1.73-1.88,0-3.38-.47-4.5-1.41-1.12-.94-1.75-2.16-1.9-3.68h3.36c.15.66.48,1.19,1,1.58.52.39,1.18.59,1.99.59.97,0,1.7-.3,2.2-.91.49-.61.74-1.42.74-2.42s-.25-1.8-.75-2.33c-.5-.53-1.24-.8-2.21-.8-.69,0-1.27.17-1.73.52s-.79.81-.99,1.38h-3.31v-10.57h11.16v3.04Z" fill="#fff"/>
    </g>
  </g>
</svg>