<?xml version="1.0" encoding="UTF-8"?>
<svg xmlns="http://www.w3.org/2000/svg" viewBox="0 0 1920 1080">
  <g id="Layer_2">
    <rect x="-40" y="-27" width="1992" height="1154" fill="#f9f9f9"/>
  </g>
  <g id="SST_Ground_Floor">
    <rect x="1909.13" y="-9.5" width="29.37" height="237.42" fill="#ddd" stroke="#999" stroke-miterlimit="10" stroke-width="3"/>
    <rect x="289" y="92" width="157" height="26" fill="#757575" stroke="#fff" stroke-miterlimit="10" stroke-width="2"/>
    <rect x="-14.55" y="63.5" width="302.05" height="36" fill="#ddd" stroke="#999" stroke-miterlimit="10" stroke-width="3"/>
    <rect x="849.5" y="949" width="220" height="150.5" fill="#ddd" stroke="#999" stroke-miterlimit="10" stroke-width="3"/>
    <rect x="-6.5" y="949" width="856" height="150.5" fill="#395e7c"/>
    <rect x="-17.5" y="690.5" width="307.5" height="136" fill="#fed766" stroke="#fff" stroke-miterlimit="10" stroke-width="3"/>
    <rect x="-17.5" y="190.5" width="307.5" height="500" fill="#757575" stroke="#fff" stroke-miterlimit="10" stroke-width="3"/>
    <rect x="447.5" y="94.52" width="1112.5" height="94.64" fill="#ddd" stroke="#999" stroke-miterlimit="10" stroke-width="3"/>
    <rect x="1675" y="765.5" width="259.96" height="184" fill="#757575" stroke="#fff" stroke-miterlimit="10" stroke-width="3"/>
    <rect x="1677.36" y="947.5" width="256.41" height="152" fill="#ddd" stroke="#999" stroke-miterlimit="10" stroke-width="3"/>
    <rect x="1679.5" y="221.5" width="258.74" height="221" fill="#ddd" stroke="#999" stroke-miterlimit="10" stroke-width="3"/>
    <rect x="448" y="95" width="335.1" height="95" fill="#395e7c"/>
    <rect x="-16.01" y="96.49" width="305.54" height="93.51" fill="#395e7c" stroke="#fff" stroke-miterlimit="10"/>
    <g>
      <path d="M58.19,1014.72v8.23h11.04v5.22h-11.04v8.69h12.45v5.36h-19.03v-32.85h19.03v5.36h-12.45Z" fill="#fff"/>
      <path d="M104.67,1042.21h-6.58l-14.9-22.51v22.51h-6.58v-32.85h6.58l14.9,22.56v-22.56h6.58v32.85Z" fill="#fff"/>
      <path d="M134,1019.28c-.75-1.38-1.79-2.43-3.1-3.15s-2.85-1.08-4.61-1.08c-1.94,0-3.67.44-5.17,1.32s-2.68,2.13-3.52,3.76c-.85,1.63-1.27,3.51-1.27,5.64s.43,4.11,1.29,5.73c.86,1.63,2.06,2.88,3.6,3.76,1.54.88,3.32,1.32,5.36,1.32,2.51,0,4.56-.67,6.16-2,1.6-1.33,2.65-3.19,3.15-5.57h-11.28v-5.03h17.77v5.73c-.44,2.29-1.38,4.4-2.82,6.34-1.44,1.94-3.3,3.5-5.57,4.68-2.27,1.17-4.82,1.76-7.64,1.76-3.17,0-6.02-.71-8.58-2.14-2.55-1.43-4.56-3.41-6.02-5.95s-2.19-5.42-2.19-8.65.73-6.12,2.19-8.67,3.46-4.54,6.02-5.97c2.55-1.42,5.4-2.14,8.53-2.14,3.7,0,6.91.9,9.64,2.7,2.73,1.8,4.61,4.33,5.64,7.59h-7.57Z" fill="#fff"/>
      <path d="M153.83,1009.41v32.81h-6.58v-32.81h6.58Z" fill="#fff"/>
      <path d="M188.37,1042.21h-6.58l-14.9-22.51v22.51h-6.58v-32.85h6.58l14.9,22.56v-22.56h6.58v32.85Z" fill="#fff"/>
      <path d="M201.44,1014.72v8.23h11.04v5.22h-11.04v8.69h12.45v5.36h-19.03v-32.85h19.03v5.36h-12.45Z" fill="#fff"/>
      <path d="M226.44,1014.72v8.23h11.04v5.22h-11.04v8.69h12.45v5.36h-19.03v-32.85h19.03v5.36h-12.45Z" fill="#fff"/>
      <path d="M261.79,1042.21l-7.24-12.78h-3.1v12.78h-6.58v-32.81h12.31c2.54,0,4.7.45,6.49,1.34,1.79.89,3.13,2.1,4.02,3.62.89,1.52,1.34,3.22,1.34,5.1,0,2.16-.63,4.11-1.88,5.85-1.25,1.74-3.12,2.94-5.59,3.6l7.85,13.3h-7.61ZM251.45,1024.49h5.5c1.79,0,3.12-.43,4-1.29.88-.86,1.32-2.06,1.32-3.6s-.44-2.67-1.32-3.5c-.88-.83-2.21-1.25-4-1.25h-5.5v9.63Z" fill="#fff"/>
      <path d="M281.57,1009.41v32.81h-6.58v-32.81h6.58Z" fill="#fff"/>
      <path d="M316.12,1042.21h-6.58l-14.9-22.51v22.51h-6.58v-32.85h6.58l14.9,22.56v-22.56h6.58v32.85Z" fill="#fff"/>
      <path d="M345.45,1019.28c-.75-1.38-1.79-2.43-3.1-3.15s-2.85-1.08-4.61-1.08c-1.94,0-3.67.44-5.17,1.32s-2.68,2.13-3.52,3.76c-.85,1.63-1.27,3.51-1.27,5.64s.43,4.11,1.29,5.73c.86,1.63,2.06,2.88,3.6,3.76,1.54.88,3.32,1.32,5.36,1.32,2.51,0,4.56-.67,6.16-2,1.6-1.33,2.65-3.19,3.15-5.57h-11.28v-5.03h17.77v5.73c-.44,2.29-1.38,4.4-2.82,6.34-1.44,1.94-3.3,3.5-5.57,4.68-2.27,1.17-4.82,1.76-7.64,1.76-3.17,0-6.02-.71-8.58-2.14-2.55-1.43-4.56-3.41-6.02-5.95s-2.19-5.42-2.19-8.65.73-6.12,2.19-8.67,3.46-4.54,6.02-5.97c2.55-1.42,5.4-2.14,8.53-2.14,3.7,0,6.91.9,9.64,2.7,2.73,1.8,4.61,4.33,5.64,7.59h-7.57Z" fill="#fff"/>
      <path d="M390.45,1011.43c2.62,1.35,4.64,3.27,6.06,5.76,1.43,2.49,2.14,5.38,2.14,8.67s-.71,6.17-2.14,8.62c-1.43,2.46-3.45,4.36-6.06,5.71-2.62,1.35-5.65,2.02-9.09,2.02h-11.47v-32.81h11.47c3.45,0,6.48.67,9.09,2.02ZM389.11,1033.8c1.88-1.88,2.82-4.53,2.82-7.94s-.94-6.09-2.82-8.01c-1.88-1.93-4.54-2.89-7.99-2.89h-4.65v21.67h4.65c3.45,0,6.11-.94,7.99-2.82Z" fill="#fff"/>
      <path d="M420.5,1042.21l-7.24-12.78h-3.1v12.78h-6.58v-32.81h12.31c2.54,0,4.7.45,6.49,1.34,1.79.89,3.13,2.1,4.02,3.62.89,1.52,1.34,3.22,1.34,5.1,0,2.16-.63,4.11-1.88,5.85-1.25,1.74-3.12,2.94-5.59,3.6l7.85,13.3h-7.61ZM410.16,1024.49h5.5c1.79,0,3.12-.43,4-1.29.88-.86,1.32-2.06,1.32-3.6s-.44-2.67-1.32-3.5c-.88-.83-2.21-1.25-4-1.25h-5.5v9.63Z" fill="#fff"/>
      <path d="M453.83,1035.96h-13.07l-2.16,6.25h-6.91l11.8-32.85h7.66l11.8,32.85h-6.96l-2.16-6.25ZM452.04,1030.7l-4.75-13.72-4.75,13.72h9.49Z" fill="#fff"/>
      <path d="M511.21,1009.41l-9.17,32.81h-7.76l-6.16-23.36-6.44,23.36-7.71.05-8.84-32.85h7.05l5.78,25.47,6.67-25.47h7.33l6.3,25.33,5.83-25.33h7.1Z" fill="#fff"/>
      <path d="M522.07,1009.41v32.81h-6.58v-32.81h6.58Z" fill="#fff"/>
      <path d="M556.61,1042.21h-6.58l-14.9-22.51v22.51h-6.58v-32.85h6.58l14.9,22.56v-22.56h6.58v32.85Z" fill="#fff"/>
      <path d="M585.94,1019.28c-.75-1.38-1.79-2.43-3.1-3.15s-2.85-1.08-4.61-1.08c-1.94,0-3.67.44-5.17,1.32s-2.68,2.13-3.52,3.76c-.85,1.63-1.27,3.51-1.27,5.64s.43,4.11,1.29,5.73c.86,1.63,2.06,2.88,3.6,3.76,1.54.88,3.32,1.32,5.36,1.32,2.51,0,4.56-.67,6.16-2,1.6-1.33,2.65-3.19,3.15-5.57h-11.28v-5.03h17.77v5.73c-.44,2.29-1.38,4.4-2.82,6.34-1.44,1.94-3.3,3.5-5.57,4.68-2.27,1.17-4.82,1.76-7.64,1.76-3.17,0-6.02-.71-8.58-2.14-2.55-1.43-4.56-3.41-6.02-5.95s-2.19-5.42-2.19-8.65.73-6.12,2.19-8.67,3.46-4.54,6.02-5.97c2.55-1.42,5.4-2.14,8.53-2.14,3.7,0,6.91.9,9.64,2.7,2.73,1.8,4.61,4.33,5.64,7.59h-7.57Z" fill="#fff"/>
      <path d="M615.53,1041.37c-1.83-.78-3.28-1.91-4.35-3.38-1.07-1.47-1.61-3.21-1.65-5.22h7.05c.09,1.35.57,2.41,1.43,3.2.86.78,2.04,1.17,3.55,1.17s2.74-.37,3.62-1.1c.88-.74,1.32-1.7,1.32-2.89,0-.97-.3-1.77-.89-2.4-.6-.63-1.34-1.12-2.23-1.48-.89-.36-2.12-.76-3.69-1.2-2.13-.63-3.86-1.25-5.19-1.86-1.33-.61-2.48-1.53-3.43-2.77-.96-1.24-1.43-2.89-1.43-4.96,0-1.94.49-3.63,1.46-5.08.97-1.44,2.33-2.55,4.09-3.31,1.75-.77,3.76-1.15,6.02-1.15,3.38,0,6.13.82,8.25,2.47,2.12,1.65,3.28,3.94,3.5,6.89h-7.24c-.06-1.13-.54-2.06-1.43-2.8-.89-.74-2.08-1.1-3.55-1.1-1.29,0-2.31.33-3.08.99-.77.66-1.15,1.61-1.15,2.87,0,.88.29,1.61.87,2.19.58.58,1.3,1.05,2.16,1.41s2.08.78,3.64,1.25c2.13.63,3.87,1.25,5.22,1.88,1.35.63,2.51,1.57,3.48,2.82.97,1.25,1.46,2.9,1.46,4.93,0,1.75-.45,3.38-1.36,4.89-.91,1.5-2.24,2.7-4,3.6-1.75.89-3.84,1.34-6.25,1.34-2.29,0-4.35-.39-6.18-1.17Z" fill="#fff"/>
      <path d="M661.33,1009.41v5.31h-8.74v27.5h-6.58v-27.5h-8.74v-5.31h24.06Z" fill="#fff"/>
      <path d="M672.61,1009.41v20.3c0,2.23.58,3.92,1.74,5.1s2.79,1.76,4.89,1.76,3.78-.59,4.94-1.76c1.16-1.17,1.74-2.87,1.74-5.1v-20.3h6.63v20.26c0,2.79-.6,5.15-1.81,7.07-1.21,1.93-2.82,3.38-4.84,4.35-2.02.97-4.27,1.46-6.74,1.46s-4.66-.49-6.65-1.46c-1.99-.97-3.56-2.42-4.72-4.35-1.16-1.93-1.74-4.28-1.74-7.07v-20.26h6.58Z" fill="#fff"/>
      <path d="M719.44,1011.43c2.62,1.35,4.64,3.27,6.06,5.76,1.43,2.49,2.14,5.38,2.14,8.67s-.71,6.17-2.14,8.62c-1.43,2.46-3.45,4.36-6.06,5.71-2.62,1.35-5.65,2.02-9.09,2.02h-11.47v-32.81h11.47c3.45,0,6.48.67,9.09,2.02ZM718.1,1033.8c1.88-1.88,2.82-4.53,2.82-7.94s-.94-6.09-2.82-8.01c-1.88-1.93-4.54-2.89-7.99-2.89h-4.65v21.67h4.65c3.45,0,6.11-.94,7.99-2.82Z" fill="#fff"/>
      <path d="M739.16,1009.41v32.81h-6.58v-32.81h6.58Z" fill="#fff"/>
      <path d="M752.41,1040.38c-2.57-1.44-4.61-3.44-6.11-5.99s-2.26-5.44-2.26-8.67.75-6.07,2.26-8.62,3.54-4.55,6.11-5.99c2.57-1.44,5.39-2.16,8.46-2.16s5.93.72,8.48,2.16c2.55,1.44,4.57,3.44,6.06,5.99,1.49,2.55,2.23,5.43,2.23,8.62s-.74,6.12-2.23,8.67c-1.49,2.55-3.52,4.55-6.09,5.99-2.57,1.44-5.39,2.16-8.46,2.16s-5.89-.72-8.46-2.16ZM766.09,1035.33c1.5-.89,2.68-2.17,3.52-3.83.85-1.66,1.27-3.59,1.27-5.78s-.42-4.11-1.27-5.76c-.85-1.64-2.02-2.91-3.52-3.78-1.5-.88-3.24-1.32-5.22-1.32s-3.72.44-5.24,1.32c-1.52.88-2.7,2.14-3.55,3.78-.85,1.65-1.27,3.57-1.27,5.76s.42,4.12,1.27,5.78c.85,1.66,2.03,2.94,3.55,3.83,1.52.89,3.27,1.34,5.24,1.34s3.71-.45,5.22-1.34Z" fill="#fff"/>
    </g>
    <g>
      <path d="M36.03,771.73c-2.34-1-4.19-2.44-5.55-4.32-1.36-1.88-2.06-4.1-2.1-6.66h9c.12,1.72.73,3.08,1.83,4.08,1.1,1,2.61,1.5,4.53,1.5s3.5-.47,4.62-1.41c1.12-.94,1.68-2.17,1.68-3.69,0-1.24-.38-2.26-1.14-3.06-.76-.8-1.71-1.43-2.85-1.89-1.14-.46-2.71-.97-4.71-1.53-2.72-.8-4.93-1.59-6.63-2.37-1.7-.78-3.16-1.96-4.38-3.54-1.22-1.58-1.83-3.69-1.83-6.33,0-2.48.62-4.64,1.86-6.48,1.24-1.84,2.98-3.25,5.22-4.23,2.24-.98,4.8-1.47,7.68-1.47,4.32,0,7.83,1.05,10.53,3.15,2.7,2.1,4.19,5.03,4.47,8.79h-9.24c-.08-1.44-.69-2.63-1.83-3.57-1.14-.94-2.65-1.41-4.53-1.41-1.64,0-2.95.42-3.93,1.26-.98.84-1.47,2.06-1.47,3.66,0,1.12.37,2.05,1.11,2.79.74.74,1.66,1.34,2.76,1.8,1.1.46,2.65.99,4.65,1.59,2.72.8,4.94,1.6,6.66,2.4,1.72.8,3.2,2,4.44,3.6,1.24,1.6,1.86,3.7,1.86,6.3,0,2.24-.58,4.32-1.74,6.24-1.16,1.92-2.86,3.45-5.1,4.59-2.24,1.14-4.9,1.71-7.98,1.71-2.92,0-5.55-.5-7.89-1.5Z" fill="#fff"/>
      <path d="M94.5,730.93v6.78h-11.16v35.1h-8.4v-35.1h-11.16v-6.78h30.72Z" fill="#fff"/>
      <path d="M126.3,764.83h-16.68l-2.76,7.98h-8.82l15.06-41.94h9.78l15.06,41.94h-8.88l-2.76-7.98ZM124.02,758.11l-6.06-17.52-6.06,17.52h12.12Z" fill="#fff"/>
      <path d="M151.98,730.93v41.88h-8.4v-41.88h8.4Z" fill="#fff"/>
      <path d="M181.86,772.81l-9.24-16.32h-3.96v16.32h-8.4v-41.88h15.72c3.24,0,6,.57,8.28,1.71,2.28,1.14,3.99,2.68,5.13,4.62,1.14,1.94,1.71,4.11,1.71,6.51,0,2.76-.8,5.25-2.4,7.47-1.6,2.22-3.98,3.75-7.14,4.59l10.02,16.98h-9.72ZM168.66,750.19h7.02c2.28,0,3.98-.55,5.1-1.65,1.12-1.1,1.68-2.63,1.68-4.59s-.56-3.41-1.68-4.47c-1.12-1.06-2.82-1.59-5.1-1.59h-7.02v12.3Z" fill="#fff"/>
      <path d="M205.29,771.73c-2.34-1-4.19-2.44-5.55-4.32-1.36-1.88-2.06-4.1-2.1-6.66h9c.12,1.72.73,3.08,1.83,4.08,1.1,1,2.61,1.5,4.53,1.5s3.5-.47,4.62-1.41c1.12-.94,1.68-2.17,1.68-3.69,0-1.24-.38-2.26-1.14-3.06-.76-.8-1.71-1.43-2.85-1.89-1.14-.46-2.71-.97-4.71-1.53-2.72-.8-4.93-1.59-6.63-2.37-1.7-.78-3.16-1.96-4.38-3.54-1.22-1.58-1.83-3.69-1.83-6.33,0-2.48.62-4.64,1.86-6.48,1.24-1.84,2.98-3.25,5.22-4.23,2.24-.98,4.8-1.47,7.68-1.47,4.32,0,7.83,1.05,10.53,3.15,2.7,2.1,4.19,5.03,4.47,8.79h-9.24c-.08-1.44-.69-2.63-1.83-3.57-1.14-.94-2.65-1.41-4.53-1.41-1.64,0-2.95.42-3.93,1.26-.98.84-1.47,2.06-1.47,3.66,0,1.12.37,2.05,1.11,2.79.74.74,1.66,1.34,2.76,1.8,1.1.46,2.65.99,4.65,1.59,2.72.8,4.94,1.6,6.66,2.4,1.72.8,3.2,2,4.44,3.6,1.24,1.6,1.86,3.7,1.86,6.3,0,2.24-.58,4.32-1.74,6.24-1.16,1.92-2.86,3.45-5.1,4.59-2.24,1.14-4.9,1.71-7.98,1.71-2.92,0-5.55-.5-7.89-1.5Z" fill="#fff"/>
    </g>
    <g>
      <path d="M43.63,109.49v3.93h5.28v2.49h-5.28v4.16h5.95v2.56h-9.1v-15.7h9.1v2.56h-5.95Z" fill="#fff"/>
      <path d="M55.58,120.14h5.17v2.49h-8.31v-15.68h3.15v13.19Z" fill="#fff"/>
      <path d="M65.89,109.49v3.93h5.28v2.49h-5.28v4.16h5.95v2.56h-9.1v-15.7h9.1v2.56h-5.95Z" fill="#fff"/>
      <path d="M74.98,110.62c.7-1.22,1.65-2.17,2.85-2.85s2.56-1.02,4.06-1.02c1.75,0,3.29.45,4.61,1.35,1.32.9,2.24,2.14,2.76,3.73h-3.62c-.36-.75-.86-1.31-1.52-1.68-.65-.37-1.4-.56-2.26-.56-.91,0-1.73.21-2.44.64-.71.43-1.27,1.03-1.66,1.81-.4.78-.6,1.69-.6,2.74s.2,1.94.6,2.73c.4.79.95,1.39,1.66,1.82.71.43,1.52.64,2.44.64.85,0,1.61-.19,2.26-.57.65-.38,1.16-.95,1.52-1.7h3.62c-.52,1.6-1.44,2.85-2.75,3.74-1.31.89-2.85,1.34-4.62,1.34-1.5,0-2.85-.34-4.06-1.02s-2.16-1.63-2.85-2.84c-.7-1.21-1.04-2.59-1.04-4.13s.35-2.92,1.04-4.15Z" fill="#fff"/>
      <path d="M102.62,106.95v2.54h-4.18v13.14h-3.15v-13.14h-4.18v-2.54h11.5Z" fill="#fff"/>
      <path d="M113,122.63l-3.46-6.11h-1.48v6.11h-3.15v-15.68h5.89c1.21,0,2.25.21,3.1.64.85.43,1.49,1,1.92,1.73.43.73.64,1.54.64,2.44,0,1.03-.3,1.97-.9,2.8-.6.83-1.49,1.4-2.67,1.72l3.75,6.36h-3.64ZM108.06,114.16h2.63c.85,0,1.49-.21,1.91-.62.42-.41.63-.98.63-1.72s-.21-1.28-.63-1.67c-.42-.4-1.06-.6-1.91-.6h-2.63v4.6Z" fill="#fff"/>
      <path d="M122.46,106.95v15.68h-3.15v-15.68h3.15Z" fill="#fff"/>
      <path d="M125.84,110.62c.7-1.22,1.65-2.17,2.85-2.85s2.56-1.02,4.06-1.02c1.75,0,3.29.45,4.61,1.35,1.32.9,2.24,2.14,2.76,3.73h-3.62c-.36-.75-.86-1.31-1.52-1.68-.65-.37-1.4-.56-2.26-.56-.91,0-1.73.21-2.44.64-.71.43-1.27,1.03-1.66,1.81-.4.78-.6,1.69-.6,2.74s.2,1.94.6,2.73c.4.79.95,1.39,1.66,1.82.71.43,1.52.64,2.44.64.85,0,1.61-.19,2.26-.57.65-.38,1.16-.95,1.52-1.7h3.62c-.52,1.6-1.44,2.85-2.75,3.74-1.31.89-2.85,1.34-4.62,1.34-1.5,0-2.85-.34-4.06-1.02s-2.16-1.63-2.85-2.84c-.7-1.21-1.04-2.59-1.04-4.13s.35-2.92,1.04-4.15Z" fill="#fff"/>
      <path d="M152.43,119.64h-6.25l-1.03,2.99h-3.3l5.64-15.7h3.66l5.64,15.7h-3.33l-1.03-2.99ZM151.57,117.13l-2.27-6.56-2.27,6.56h4.54Z" fill="#fff"/>
      <path d="M162.04,120.14h5.17v2.49h-8.31v-15.68h3.15v13.19Z" fill="#fff"/>
      <path d="M185.39,114.16c-.4.73-1.02,1.33-1.86,1.77s-1.91.67-3.2.67h-2.63v6.02h-3.15v-15.68h5.77c1.21,0,2.25.21,3.1.63.85.42,1.49,1,1.92,1.73.43.73.64,1.57.64,2.49,0,.84-.2,1.63-.6,2.36ZM182.12,113.48c.42-.4.63-.95.63-1.67,0-1.53-.85-2.29-2.56-2.29h-2.49v4.56h2.49c.87,0,1.51-.2,1.93-.6Z" fill="#fff"/>
      <path d="M191.45,121.75c-1.23-.69-2.2-1.64-2.92-2.86-.72-1.22-1.08-2.6-1.08-4.14s.36-2.9,1.08-4.12c.72-1.22,1.69-2.18,2.92-2.86s2.58-1.03,4.04-1.03,2.83.34,4.05,1.03,2.19,1.64,2.9,2.86c.71,1.22,1.07,2.59,1.07,4.12s-.36,2.92-1.07,4.14c-.71,1.22-1.68,2.18-2.91,2.86s-2.58,1.03-4.04,1.03-2.82-.34-4.04-1.03ZM197.98,119.34c.72-.43,1.28-1.04,1.68-1.83.4-.79.61-1.71.61-2.76s-.2-1.97-.61-2.75c-.4-.79-.97-1.39-1.68-1.81-.72-.42-1.55-.63-2.49-.63s-1.78.21-2.5.63c-.73.42-1.29,1.02-1.7,1.81-.4.79-.61,1.7-.61,2.75s.2,1.97.61,2.76.97,1.4,1.7,1.83c.73.43,1.56.64,2.5.64s1.77-.21,2.49-.64Z" fill="#fff"/>
      <path d="M226.81,106.95l-4.38,15.68h-3.71l-2.94-11.17-3.08,11.17-3.68.02-4.22-15.7h3.37l2.76,12.18,3.19-12.18h3.5l3.01,12.11,2.79-12.11h3.39Z" fill="#fff"/>
      <path d="M232,109.49v3.93h5.28v2.49h-5.28v4.16h5.95v2.56h-9.1v-15.7h9.1v2.56h-5.95Z" fill="#fff"/>
      <path d="M248.89,122.63l-3.46-6.11h-1.48v6.11h-3.15v-15.68h5.89c1.21,0,2.25.21,3.1.64.85.43,1.49,1,1.92,1.73.43.73.64,1.54.64,2.44,0,1.03-.3,1.97-.9,2.8-.6.83-1.49,1.4-2.67,1.72l3.75,6.36h-3.64ZM243.95,114.16h2.63c.85,0,1.49-.21,1.91-.62.42-.41.63-.98.63-1.72s-.21-1.28-.63-1.67c-.42-.4-1.06-.6-1.91-.6h-2.63v4.6Z" fill="#fff"/>
      <path d="M125.09,146.6h-6.25l-1.03,2.99h-3.3l5.64-15.7h3.66l5.64,15.7h-3.33l-1.03-2.99ZM124.23,144.08l-2.27-6.56-2.27,6.56h4.54Z" fill="#fff"/>
      <path d="M144.97,149.59h-3.15l-7.12-10.76v10.76h-3.15v-15.7h3.15l7.12,10.78v-10.78h3.15v15.7Z" fill="#fff"/>
      <path d="M157.9,134.87c1.25.64,2.22,1.56,2.9,2.75.68,1.19,1.02,2.57,1.02,4.15s-.34,2.95-1.02,4.12c-.68,1.18-1.65,2.09-2.9,2.73-1.25.64-2.7.97-4.35.97h-5.48v-15.68h5.48c1.65,0,3.1.32,4.35.97ZM157.26,145.57c.9-.9,1.35-2.16,1.35-3.8s-.45-2.91-1.35-3.83c-.9-.92-2.17-1.38-3.82-1.38h-2.22v10.36h2.22c1.65,0,2.92-.45,3.82-1.35Z" fill="#fff"/>
      <path d="M77.48,160.87v15.68h-3.15v-10.2l-4.2,10.2h-2.38l-4.22-10.2v10.2h-3.15v-15.68h3.57l4.99,11.66,4.99-11.66h3.55Z" fill="#fff"/>
      <path d="M90.2,173.56h-6.25l-1.03,2.99h-3.3l5.64-15.7h3.66l5.64,15.7h-3.33l-1.03-2.99ZM89.34,171.04l-2.27-6.56-2.27,6.56h4.54Z" fill="#fff"/>
      <path d="M96.95,164.54c.7-1.22,1.65-2.17,2.85-2.85s2.56-1.02,4.06-1.02c1.75,0,3.29.45,4.61,1.35,1.32.9,2.24,2.14,2.76,3.73h-3.62c-.36-.75-.86-1.31-1.52-1.68-.65-.37-1.4-.56-2.26-.56-.91,0-1.73.21-2.44.64-.71.43-1.27,1.03-1.66,1.81-.4.78-.6,1.69-.6,2.74s.2,1.94.6,2.73c.4.79.95,1.39,1.66,1.82.71.43,1.52.64,2.44.64.85,0,1.61-.19,2.26-.57.65-.38,1.16-.95,1.52-1.7h3.62c-.52,1.6-1.44,2.85-2.75,3.74-1.31.89-2.85,1.34-4.62,1.34-1.5,0-2.85-.34-4.06-1.02s-2.16-1.63-2.85-2.84c-.7-1.21-1.04-2.59-1.04-4.13s.35-2.92,1.04-4.15Z" fill="#fff"/>
      <path d="M126.93,160.87v15.68h-3.15v-6.67h-6.72v6.67h-3.15v-15.68h3.15v6.45h6.72v-6.45h3.15Z" fill="#fff"/>
      <path d="M133.17,160.87v15.68h-3.15v-15.68h3.15Z" fill="#fff"/>
      <path d="M149.68,176.55h-3.15l-7.12-10.76v10.76h-3.15v-15.7h3.15l7.12,10.78v-10.78h3.15v15.7Z" fill="#fff"/>
      <path d="M155.93,163.41v3.93h5.28v2.49h-5.28v4.16h5.95v2.56h-9.1v-15.7h9.1v2.56h-5.95Z" fill="#fff"/>
      <path d="M167.2,176.14c-.88-.37-1.57-.91-2.08-1.62-.51-.7-.77-1.54-.79-2.49h3.37c.04.64.27,1.15.69,1.53.41.37.98.56,1.7.56s1.31-.18,1.73-.53c.42-.35.63-.81.63-1.38,0-.46-.14-.85-.43-1.15-.28-.3-.64-.54-1.07-.71-.43-.17-1.01-.36-1.76-.57-1.02-.3-1.85-.6-2.48-.89s-1.18-.73-1.64-1.33c-.46-.59-.69-1.38-.69-2.37,0-.93.23-1.74.7-2.43.46-.69,1.12-1.22,1.95-1.58.84-.37,1.8-.55,2.88-.55,1.62,0,2.93.39,3.94,1.18,1.01.79,1.57,1.88,1.67,3.29h-3.46c-.03-.54-.26-.98-.69-1.34-.43-.35-.99-.53-1.7-.53-.61,0-1.1.16-1.47.47-.37.31-.55.77-.55,1.37,0,.42.14.77.42,1.04.28.28.62.5,1.03.67.41.17.99.37,1.74.6,1.02.3,1.85.6,2.49.9.64.3,1.2.75,1.66,1.35.46.6.7,1.39.7,2.36,0,.84-.22,1.62-.65,2.34-.43.72-1.07,1.29-1.91,1.72s-1.83.64-2.99.64c-1.09,0-2.08-.19-2.95-.56Z" fill="#fff"/>
      <path d="M186.91,174.05h5.17v2.49h-8.31v-15.68h3.15v13.19Z" fill="#fff"/>
      <path d="M203.69,173.56h-6.25l-1.03,2.99h-3.3l5.64-15.7h3.66l5.64,15.7h-3.33l-1.03-2.99ZM202.84,171.04l-2.27-6.56-2.27,6.56h4.54Z" fill="#fff"/>
      <path d="M221.24,169.83c.57.72.85,1.54.85,2.47,0,.84-.21,1.58-.62,2.21-.41.64-1.01,1.13-1.79,1.49-.78.36-1.7.54-2.76.54h-6.76v-15.68h6.47c1.06,0,1.98.17,2.75.52.77.34,1.35.82,1.75,1.44.4.61.6,1.31.6,2.09,0,.91-.24,1.68-.73,2.29-.49.61-1.13,1.05-1.94,1.3.88.17,1.61.61,2.18,1.33ZM213.31,167.34h2.88c.75,0,1.33-.17,1.73-.51s.61-.82.61-1.45-.2-1.12-.61-1.46-.98-.52-1.73-.52h-2.88v3.93ZM218.26,173.45c.43-.36.64-.87.64-1.53s-.22-1.2-.67-1.58c-.45-.38-1.06-.57-1.82-.57h-3.1v4.22h3.17c.76,0,1.36-.18,1.79-.54Z" fill="#fff"/>
    </g>
    <g>
      <path d="M541.32,105.99v4.61h6.19v2.92h-6.19v4.87h6.98v3h-10.67v-18.41h10.67v3h-6.98Z" fill="#fff"/>
      <path d="M555.33,118.48h6.06v2.92h-9.75v-18.39h3.69v15.46Z" fill="#fff"/>
      <path d="M567.42,105.99v4.61h6.19v2.92h-6.19v4.87h6.98v3h-10.67v-18.41h10.67v3h-6.98Z" fill="#fff"/>
      <path d="M578.08,107.32c.82-1.43,1.93-2.55,3.35-3.35,1.41-.8,3-1.2,4.75-1.2,2.06,0,3.85.53,5.4,1.58s2.63,2.51,3.24,4.37h-4.24c-.42-.88-1.01-1.54-1.78-1.98-.76-.44-1.65-.66-2.65-.66-1.07,0-2.02.25-2.86.75-.83.5-1.48,1.21-1.95,2.12s-.7,1.98-.7,3.21.23,2.28.7,3.2,1.12,1.63,1.95,2.13c.83.5,1.79.75,2.86.75,1,0,1.88-.22,2.65-.67.76-.45,1.36-1.11,1.78-1.99h4.24c-.62,1.88-1.69,3.34-3.23,4.39s-3.34,1.57-5.41,1.57c-1.76,0-3.34-.4-4.75-1.2-1.41-.8-2.53-1.91-3.35-3.33-.82-1.42-1.23-3.04-1.23-4.85s.41-3.43,1.23-4.86Z" fill="#fff"/>
      <path d="M610.5,103.02v2.98h-4.9v15.41h-3.69v-15.41h-4.9v-2.98h13.49Z" fill="#fff"/>
      <path d="M622.67,121.4l-4.06-7.17h-1.74v7.17h-3.69v-18.39h6.9c1.42,0,2.63.25,3.64.75,1,.5,1.75,1.18,2.25,2.03.5.85.75,1.8.75,2.86,0,1.21-.35,2.31-1.05,3.28-.7.98-1.75,1.65-3.13,2.02l4.4,7.46h-4.27ZM616.87,111.47h3.08c1,0,1.75-.24,2.24-.72.49-.48.74-1.15.74-2.02s-.25-1.5-.74-1.96-1.24-.7-2.24-.7h-3.08v5.4Z" fill="#fff"/>
      <path d="M633.86,120.38c-1.44-.81-2.58-1.93-3.42-3.36-.84-1.43-1.26-3.05-1.26-4.86s.42-3.4,1.26-4.83c.84-1.43,1.98-2.55,3.42-3.36,1.44-.81,3.02-1.21,4.74-1.21s3.32.4,4.75,1.21c1.43.81,2.56,1.93,3.4,3.36.83,1.43,1.25,3.04,1.25,4.83s-.42,3.43-1.25,4.86c-.83,1.43-1.97,2.55-3.41,3.36-1.44.81-3.02,1.21-4.74,1.21s-3.3-.4-4.74-1.21ZM641.53,117.54c.84-.5,1.5-1.22,1.98-2.15.47-.93.71-2.01.71-3.24s-.24-2.31-.71-3.23c-.47-.92-1.13-1.63-1.98-2.12-.84-.49-1.82-.74-2.92-.74s-2.09.25-2.94.74-1.51,1.2-1.99,2.12c-.47.92-.71,2-.71,3.23s.24,2.31.71,3.24c.47.93,1.14,1.65,1.99,2.15s1.83.75,2.94.75,2.08-.25,2.92-.75Z" fill="#fff"/>
      <path d="M666.48,121.4h-3.69l-8.35-12.62v12.62h-3.69v-18.41h3.69l8.35,12.65v-12.65h3.69v18.41Z" fill="#fff"/>
      <path d="M673.8,103.02v18.39h-3.69v-18.39h3.69Z" fill="#fff"/>
      <path d="M677.76,107.32c.82-1.43,1.93-2.55,3.35-3.35,1.41-.8,3-1.2,4.75-1.2,2.06,0,3.85.53,5.4,1.58s2.63,2.51,3.24,4.37h-4.24c-.42-.88-1.01-1.54-1.78-1.98-.76-.44-1.65-.66-2.65-.66-1.07,0-2.02.25-2.86.75-.83.5-1.48,1.21-1.95,2.12s-.7,1.98-.7,3.21.23,2.28.7,3.2,1.12,1.63,1.95,2.13c.83.5,1.79.75,2.86.75,1,0,1.88-.22,2.65-.67.76-.45,1.36-1.11,1.78-1.99h4.24c-.62,1.88-1.69,3.34-3.23,4.39s-3.34,1.57-5.41,1.57c-1.76,0-3.34-.4-4.75-1.2-1.41-.8-2.53-1.91-3.35-3.33-.82-1.42-1.23-3.04-1.23-4.85s.41-3.43,1.23-4.86Z" fill="#fff"/>
      <path d="M597.23,149.51h-7.32l-1.21,3.5h-3.87l6.61-18.41h4.29l6.61,18.41h-3.9l-1.21-3.5ZM596.23,146.56l-2.66-7.69-2.66,7.69h5.32Z" fill="#fff"/>
      <path d="M620.55,153.02h-3.69l-8.35-12.62v12.62h-3.69v-18.41h3.69l8.35,12.65v-12.65h3.69v18.41Z" fill="#fff"/>
      <path d="M635.71,135.76c1.47.76,2.6,1.83,3.4,3.23.8,1.4,1.2,3.02,1.2,4.86s-.4,3.46-1.2,4.83c-.8,1.38-1.93,2.45-3.4,3.2-1.47.76-3.17,1.13-5.1,1.13h-6.43v-18.39h6.43c1.93,0,3.63.38,5.1,1.13ZM634.96,148.3c1.05-1.05,1.58-2.54,1.58-4.45s-.53-3.41-1.58-4.49-2.55-1.62-4.48-1.62h-2.61v12.14h2.61c1.93,0,3.42-.53,4.48-1.58Z" fill="#fff"/>
      <path d="M528.33,170.55c.82-1.43,1.93-2.55,3.35-3.35,1.41-.8,3-1.2,4.75-1.2,2.06,0,3.85.53,5.4,1.58s2.63,2.51,3.24,4.37h-4.24c-.42-.88-1.01-1.54-1.78-1.98-.76-.44-1.65-.66-2.65-.66-1.07,0-2.02.25-2.86.75-.83.5-1.48,1.21-1.95,2.12s-.7,1.98-.7,3.21.23,2.28.7,3.2,1.12,1.63,1.95,2.13c.83.5,1.79.75,2.86.75,1,0,1.88-.22,2.65-.67.76-.45,1.36-1.11,1.78-1.99h4.24c-.62,1.88-1.69,3.34-3.23,4.39s-3.34,1.57-5.41,1.57c-1.76,0-3.34-.4-4.75-1.2-1.41-.8-2.53-1.91-3.35-3.33-.82-1.42-1.23-3.04-1.23-4.85s.41-3.43,1.23-4.86Z" fill="#fff"/>
      <path d="M552.03,183.6c-1.44-.81-2.58-1.93-3.42-3.36-.84-1.43-1.26-3.05-1.26-4.86s.42-3.4,1.26-4.83c.84-1.43,1.98-2.55,3.42-3.36,1.44-.81,3.02-1.21,4.74-1.21s3.32.4,4.75,1.21c1.43.81,2.56,1.93,3.4,3.36.83,1.43,1.25,3.04,1.25,4.83s-.42,3.43-1.25,4.86c-.83,1.43-1.97,2.55-3.41,3.36-1.44.81-3.02,1.21-4.74,1.21s-3.3-.4-4.74-1.21ZM559.69,180.77c.84-.5,1.5-1.22,1.98-2.15.47-.93.71-2.01.71-3.24s-.24-2.31-.71-3.23c-.47-.92-1.13-1.63-1.98-2.12-.84-.49-1.82-.74-2.92-.74s-2.09.25-2.94.74-1.51,1.2-1.99,2.12c-.47.92-.71,2-.71,3.23s.24,2.31.71,3.24c.47.93,1.14,1.65,1.99,2.15s1.83.75,2.94.75,2.08-.25,2.92-.75Z" fill="#fff"/>
      <path d="M584.64,184.63h-3.69l-8.35-12.62v12.62h-3.69v-18.41h3.69l8.35,12.65v-12.65h3.69v18.41Z" fill="#fff"/>
      <path d="M600.79,166.24v2.98h-4.9v15.41h-3.69v-15.41h-4.9v-2.98h13.49Z" fill="#fff"/>
      <path d="M612.96,184.63l-4.06-7.17h-1.74v7.17h-3.69v-18.39h6.9c1.42,0,2.63.25,3.64.75,1,.5,1.75,1.18,2.25,2.03.5.85.75,1.8.75,2.86,0,1.21-.35,2.31-1.05,3.28-.7.98-1.75,1.65-3.13,2.02l4.4,7.46h-4.27ZM607.16,174.7h3.08c1,0,1.75-.24,2.24-.72.49-.48.74-1.15.74-2.02s-.25-1.5-.74-1.96-1.24-.7-2.24-.7h-3.08v5.4Z" fill="#fff"/>
      <path d="M624.16,183.6c-1.44-.81-2.58-1.93-3.42-3.36-.84-1.43-1.26-3.05-1.26-4.86s.42-3.4,1.26-4.83c.84-1.43,1.98-2.55,3.42-3.36,1.44-.81,3.02-1.21,4.74-1.21s3.32.4,4.75,1.21c1.43.81,2.56,1.93,3.4,3.36.83,1.43,1.25,3.04,1.25,4.83s-.42,3.43-1.25,4.86c-.83,1.43-1.97,2.55-3.41,3.36-1.44.81-3.02,1.21-4.74,1.21s-3.3-.4-4.74-1.21ZM631.82,180.77c.84-.5,1.5-1.22,1.98-2.15.47-.93.71-2.01.71-3.24s-.24-2.31-.71-3.23c-.47-.92-1.13-1.63-1.98-2.12-.84-.49-1.82-.74-2.92-.74s-2.09.25-2.94.74-1.51,1.2-1.99,2.12c-.47.92-.71,2-.71,3.23s.24,2.31.71,3.24c.47.93,1.14,1.65,1.99,2.15s1.83.75,2.94.75,2.08-.25,2.92-.75Z" fill="#fff"/>
      <path d="M644.73,181.71h6.06v2.92h-9.75v-18.39h3.69v15.46Z" fill="#fff"/>
      <path d="M663.09,181.71h6.06v2.92h-9.75v-18.39h3.69v15.46Z" fill="#fff"/>
      <path d="M682.77,181.13h-7.32l-1.21,3.5h-3.87l6.61-18.41h4.29l6.61,18.41h-3.9l-1.21-3.5ZM681.77,178.18l-2.66-7.69-2.66,7.69h5.32Z" fill="#fff"/>
      <path d="M703.34,176.75c.67.84,1,1.81,1,2.9,0,.98-.24,1.85-.72,2.59-.48.75-1.18,1.33-2.09,1.75s-1.99.63-3.24.63h-7.93v-18.39h7.59c1.25,0,2.32.2,3.23.61.9.4,1.59.97,2.05,1.69.47.72.7,1.54.7,2.45,0,1.07-.29,1.97-.86,2.69-.57.72-1.33,1.23-2.28,1.53,1.04.19,1.89.71,2.56,1.55ZM694.04,173.83h3.37c.88,0,1.55-.2,2.03-.59s.71-.96.71-1.7-.24-1.31-.71-1.71c-.47-.4-1.15-.61-2.03-.61h-3.37v4.61ZM699.85,180.99c.5-.42.75-1.02.75-1.79s-.26-1.41-.79-1.86-1.24-.67-2.13-.67h-3.64v4.95h3.71c.9,0,1.59-.21,2.09-.63Z" fill="#fff"/>
    </g>
    <g>
      <path d="M1720.74,879c-2.34-1-4.19-2.44-5.55-4.32-1.36-1.88-2.06-4.1-2.1-6.66h9c.12,1.72.73,3.08,1.83,4.08,1.1,1,2.61,1.5,4.53,1.5s3.5-.47,4.62-1.41c1.12-.94,1.68-2.17,1.68-3.69,0-1.24-.38-2.26-1.14-3.06-.76-.8-1.71-1.43-2.85-1.89-1.14-.46-2.71-.97-4.71-1.53-2.72-.8-4.93-1.59-6.63-2.37-1.7-.78-3.16-1.96-4.38-3.54-1.22-1.58-1.83-3.69-1.83-6.33,0-2.48.62-4.64,1.86-6.48,1.24-1.84,2.98-3.25,5.22-4.23,2.24-.98,4.8-1.47,7.68-1.47,4.32,0,7.83,1.05,10.53,3.15s4.19,5.03,4.47,8.79h-9.24c-.08-1.44-.69-2.63-1.83-3.57-1.14-.94-2.65-1.41-4.53-1.41-1.64,0-2.95.42-3.93,1.26-.98.84-1.47,2.06-1.47,3.66,0,1.12.37,2.05,1.11,2.79s1.66,1.34,2.76,1.8,2.65.99,4.65,1.59c2.72.8,4.94,1.6,6.66,2.4,1.72.8,3.2,2,4.44,3.6,1.24,1.6,1.86,3.7,1.86,6.3,0,2.24-.58,4.32-1.74,6.24s-2.86,3.45-5.1,4.59c-2.24,1.14-4.9,1.71-7.98,1.71-2.92,0-5.55-.5-7.89-1.5Z" fill="#fff"/>
      <path d="M1779.21,838.21v6.78h-11.16v35.1h-8.4v-35.1h-11.16v-6.78h30.72Z" fill="#fff"/>
      <path d="M1811.01,872.1h-16.68l-2.76,7.98h-8.82l15.06-41.94h9.78l15.06,41.94h-8.88l-2.76-7.98ZM1808.73,865.38l-6.06-17.52-6.06,17.52h12.12Z" fill="#fff"/>
      <path d="M1854.15,838.21v6.78h-17.46v10.74h13.38v6.66h-13.38v17.7h-8.4v-41.88h25.86Z" fill="#fff"/>
      <path d="M1885.95,838.21v6.78h-17.46v10.74h13.38v6.66h-13.38v17.7h-8.4v-41.88h25.86Z" fill="#fff"/>
    </g>
    <g>
      <g>
        <path d="M76.42,373.48c1.02-1.79,2.41-3.18,4.18-4.18,1.77-1,3.74-1.5,5.94-1.5,2.57,0,4.81.66,6.74,1.97,1.93,1.32,3.28,3.14,4.05,5.46h-5.3c-.53-1.1-1.27-1.92-2.22-2.47-.95-.55-2.06-.82-3.31-.82-1.34,0-2.53.31-3.57.94-1.04.63-1.85,1.51-2.43,2.65-.58,1.14-.87,2.48-.87,4.01s.29,2.85.87,4c.58,1.15,1.39,2.04,2.43,2.67,1.04.62,2.23.94,3.57.94,1.25,0,2.35-.28,3.31-.84.95-.56,1.69-1.39,2.22-2.48h5.3c-.77,2.35-2.11,4.17-4.03,5.48-1.92,1.31-4.17,1.96-6.76,1.96-2.19,0-4.17-.5-5.94-1.5-1.77-1-3.16-2.39-4.18-4.16-1.02-1.78-1.53-3.79-1.53-6.05s.51-4.28,1.53-6.07Z" fill="#fff"/>
        <path d="M106.01,389.78c-1.8-1.01-3.22-2.41-4.28-4.19s-1.58-3.81-1.58-6.07.53-4.25,1.58-6.04c1.05-1.79,2.48-3.19,4.28-4.19s3.77-1.51,5.92-1.51,4.15.5,5.94,1.51,3.2,2.41,4.24,4.19c1.04,1.79,1.56,3.8,1.56,6.04s-.52,4.28-1.56,6.07c-1.04,1.79-2.46,3.19-4.26,4.19-1.8,1.01-3.77,1.51-5.92,1.51s-4.12-.5-5.92-1.51ZM115.58,386.25c1.05-.62,1.88-1.52,2.47-2.68.59-1.16.89-2.51.89-4.05s-.3-2.88-.89-4.03-1.41-2.03-2.47-2.65c-1.05-.61-2.27-.92-3.65-.92s-2.6.31-3.67.92c-1.06.61-1.89,1.5-2.48,2.65-.59,1.15-.89,2.5-.89,4.03s.3,2.88.89,4.05c.59,1.16,1.42,2.06,2.48,2.68,1.06.62,2.29.94,3.67.94s2.6-.31,3.65-.94Z" fill="#fff"/>
        <path d="M131.64,368.1v14.21c0,1.56.41,2.75,1.22,3.57.81.82,1.95,1.23,3.42,1.23s2.64-.41,3.45-1.23c.81-.82,1.22-2.01,1.22-3.57v-14.21h4.64v14.18c0,1.95-.42,3.6-1.27,4.95-.84,1.35-1.97,2.36-3.39,3.04-1.41.68-2.99,1.02-4.72,1.02s-3.26-.34-4.65-1.02c-1.39-.68-2.5-1.69-3.31-3.04-.81-1.35-1.22-3-1.22-4.95v-14.18h4.61Z" fill="#fff"/>
        <path d="M161.87,391.07l-5.07-8.95h-2.17v8.95h-4.61v-22.96h8.62c1.78,0,3.29.31,4.54.94,1.25.63,2.19,1.47,2.81,2.53.62,1.06.94,2.25.94,3.57,0,1.51-.44,2.88-1.32,4.1-.88,1.22-2.18,2.06-3.92,2.52l5.49,9.31h-5.33ZM154.63,378.66h3.85c1.25,0,2.18-.3,2.8-.9.61-.6.92-1.44.92-2.52s-.31-1.87-.92-2.45c-.61-.58-1.55-.87-2.8-.87h-3.85v6.74Z" fill="#fff"/>
        <path d="M174.72,390.47c-1.28-.55-2.3-1.34-3.04-2.37-.75-1.03-1.13-2.25-1.15-3.65h4.94c.07.94.4,1.69,1,2.24.6.55,1.43.82,2.48.82s1.92-.26,2.53-.77c.61-.52.92-1.19.92-2.02,0-.68-.21-1.24-.62-1.68-.42-.44-.94-.78-1.56-1.04-.63-.25-1.49-.53-2.58-.84-1.49-.44-2.7-.87-3.64-1.3s-1.73-1.07-2.4-1.94c-.67-.87-1-2.02-1-3.47,0-1.36.34-2.54,1.02-3.55.68-1.01,1.63-1.78,2.86-2.32,1.23-.54,2.63-.81,4.21-.81,2.37,0,4.29.58,5.77,1.73,1.48,1.15,2.3,2.76,2.45,4.82h-5.07c-.04-.79-.38-1.44-1-1.96-.62-.51-1.45-.77-2.48-.77-.9,0-1.62.23-2.15.69-.54.46-.81,1.13-.81,2.01,0,.61.2,1.12.61,1.53.41.41.91.73,1.51.99.6.25,1.45.54,2.55.87,1.49.44,2.71.88,3.65,1.32.94.44,1.75,1.1,2.43,1.97.68.88,1.02,2.03,1.02,3.45,0,1.23-.32,2.37-.95,3.42-.64,1.05-1.57,1.89-2.8,2.52-1.23.63-2.69.94-4.38.94-1.6,0-3.04-.27-4.33-.82Z" fill="#fff"/>
        <path d="M195.76,371.82v5.76h7.73v3.65h-7.73v6.09h8.72v3.75h-13.32v-23h13.32v3.75h-8.72Z" fill="#fff"/>
      </g>
      <g>
        <path d="M11.3,414.65c1.02-1.79,2.41-3.18,4.18-4.18,1.77-1,3.74-1.5,5.94-1.5,2.57,0,4.81.66,6.74,1.97,1.93,1.32,3.28,3.14,4.05,5.46h-5.3c-.53-1.1-1.27-1.92-2.22-2.47-.95-.55-2.06-.82-3.31-.82-1.34,0-2.53.31-3.57.94s-1.85,1.51-2.43,2.65c-.58,1.14-.87,2.48-.87,4.01s.29,2.85.87,4c.58,1.15,1.39,2.04,2.43,2.66s2.23.94,3.57.94c1.25,0,2.35-.28,3.31-.84.95-.56,1.69-1.39,2.22-2.48h5.3c-.77,2.35-2.11,4.17-4.03,5.48s-4.17,1.96-6.76,1.96c-2.19,0-4.17-.5-5.94-1.5-1.77-1-3.16-2.39-4.18-4.16-1.02-1.78-1.53-3.79-1.53-6.05s.51-4.28,1.53-6.07Z" fill="#fff"/>
        <path d="M40.89,430.95c-1.8-1.01-3.22-2.41-4.28-4.19s-1.58-3.81-1.58-6.07.53-4.25,1.58-6.04c1.05-1.79,2.48-3.19,4.28-4.19,1.8-1.01,3.77-1.51,5.92-1.51s4.15.5,5.94,1.51c1.79,1.01,3.2,2.41,4.24,4.19,1.04,1.79,1.56,3.8,1.56,6.04s-.52,4.28-1.56,6.07c-1.04,1.79-2.46,3.19-4.26,4.19-1.8,1.01-3.77,1.51-5.92,1.51s-4.12-.5-5.92-1.51ZM50.46,427.41c1.05-.62,1.88-1.52,2.47-2.68.59-1.16.89-2.51.89-4.05s-.3-2.88-.89-4.03-1.41-2.03-2.47-2.65c-1.05-.61-2.27-.92-3.65-.92s-2.6.31-3.67.92c-1.06.61-1.89,1.5-2.48,2.65-.59,1.15-.89,2.49-.89,4.03s.3,2.88.89,4.05c.59,1.16,1.42,2.06,2.48,2.68,1.06.62,2.29.94,3.67.94s2.6-.31,3.65-.94Z" fill="#fff"/>
        <path d="M66.71,430.95c-1.8-1.01-3.22-2.41-4.28-4.19s-1.58-3.81-1.58-6.07.53-4.25,1.58-6.04c1.05-1.79,2.48-3.19,4.28-4.19,1.8-1.01,3.77-1.51,5.92-1.51s4.15.5,5.94,1.51c1.79,1.01,3.2,2.41,4.24,4.19,1.04,1.79,1.56,3.8,1.56,6.04s-.52,4.28-1.56,6.07c-1.04,1.79-2.46,3.19-4.26,4.19-1.8,1.01-3.77,1.51-5.92,1.51s-4.12-.5-5.92-1.51ZM76.28,427.41c1.05-.62,1.88-1.52,2.47-2.68.59-1.16.89-2.51.89-4.05s-.3-2.88-.89-4.03-1.41-2.03-2.47-2.65c-1.05-.61-2.27-.92-3.65-.92s-2.6.31-3.67.92c-1.06.61-1.89,1.5-2.48,2.65-.59,1.15-.89,2.49-.89,4.03s.3,2.88.89,4.05c.59,1.16,1.42,2.06,2.48,2.68,1.06.62,2.29.94,3.67.94s2.6-.31,3.65-.94Z" fill="#fff"/>
        <path d="M99.64,432.23l-5.07-8.95h-2.17v8.95h-4.61v-22.96h8.62c1.78,0,3.29.31,4.54.94s2.19,1.47,2.81,2.53c.62,1.06.94,2.25.94,3.57,0,1.51-.44,2.88-1.32,4.1-.88,1.22-2.18,2.06-3.91,2.52l5.49,9.31h-5.33ZM92.4,419.83h3.85c1.25,0,2.18-.3,2.8-.9.61-.6.92-1.44.92-2.52s-.31-1.87-.92-2.45c-.61-.58-1.55-.87-2.8-.87h-3.85v6.74Z" fill="#fff"/>
        <path d="M123.27,410.68c1.83.94,3.25,2.29,4.24,4.03,1,1.74,1.5,3.77,1.5,6.07s-.5,4.31-1.5,6.04c-1,1.72-2.41,3.05-4.24,4-1.83.94-3.95,1.41-6.37,1.41h-8.03v-22.96h8.03c2.41,0,4.53.47,6.37,1.41ZM122.34,426.34c1.32-1.32,1.97-3.17,1.97-5.56s-.66-4.26-1.97-5.61c-1.32-1.35-3.18-2.02-5.59-2.02h-3.26v15.17h3.26c2.41,0,4.28-.66,5.59-1.97Z" fill="#fff"/>
        <path d="M137.07,409.27v22.96h-4.61v-22.96h4.61Z" fill="#fff"/>
        <path d="M161.25,432.23h-4.61l-10.43-15.76v15.76h-4.61v-22.99h4.61l10.43,15.79v-15.79h4.61v22.99Z" fill="#fff"/>
        <path d="M179.87,427.85h-9.15l-1.51,4.38h-4.84l8.26-22.99h5.36l8.26,22.99h-4.87l-1.51-4.38ZM178.62,424.17l-3.32-9.61-3.32,9.61h6.65Z" fill="#fff"/>
        <path d="M204.97,409.27v3.72h-6.12v19.24h-4.61v-19.24h-6.12v-3.72h16.84Z" fill="#fff"/>
        <path d="M213.06,430.95c-1.8-1.01-3.22-2.41-4.28-4.19s-1.58-3.81-1.58-6.07.53-4.25,1.58-6.04c1.05-1.79,2.48-3.19,4.28-4.19,1.8-1.01,3.77-1.51,5.92-1.51s4.15.5,5.94,1.51c1.79,1.01,3.2,2.41,4.24,4.19,1.04,1.79,1.56,3.8,1.56,6.04s-.52,4.28-1.56,6.07c-1.04,1.79-2.46,3.19-4.26,4.19-1.8,1.01-3.77,1.51-5.92,1.51s-4.12-.5-5.92-1.51ZM222.64,427.41c1.05-.62,1.88-1.52,2.47-2.68.59-1.16.89-2.51.89-4.05s-.3-2.88-.89-4.03-1.41-2.03-2.47-2.65c-1.05-.61-2.27-.92-3.65-.92s-2.6.31-3.67.92c-1.06.61-1.89,1.5-2.48,2.65-.59,1.15-.89,2.49-.89,4.03s.3,2.88.89,4.05c.59,1.16,1.42,2.06,2.48,2.68,1.06.62,2.29.94,3.67.94s2.6-.31,3.65-.94Z" fill="#fff"/>
        <path d="M245.99,432.23l-5.07-8.95h-2.17v8.95h-4.61v-22.96h8.62c1.78,0,3.29.31,4.54.94s2.19,1.47,2.81,2.53c.62,1.06.94,2.25.94,3.57,0,1.51-.44,2.88-1.32,4.1-.88,1.22-2.18,2.06-3.91,2.52l5.49,9.31h-5.33ZM238.76,419.83h3.85c1.25,0,2.18-.3,2.8-.9.61-.6.92-1.44.92-2.52s-.31-1.87-.92-2.45c-.61-.58-1.55-.87-2.8-.87h-3.85v6.74Z" fill="#fff"/>
        <path d="M258.84,431.64c-1.28-.55-2.3-1.34-3.04-2.37-.75-1.03-1.13-2.25-1.15-3.65h4.93c.07.94.4,1.69,1,2.24.6.55,1.43.82,2.48.82s1.92-.26,2.53-.77c.61-.52.92-1.19.92-2.02,0-.68-.21-1.24-.62-1.68-.42-.44-.94-.78-1.56-1.04-.62-.25-1.49-.53-2.58-.84-1.49-.44-2.7-.87-3.63-1.3-.93-.43-1.73-1.07-2.4-1.94-.67-.87-1-2.02-1-3.47,0-1.36.34-2.54,1.02-3.55.68-1.01,1.63-1.78,2.86-2.32,1.23-.54,2.63-.81,4.21-.81,2.37,0,4.29.58,5.77,1.73s2.3,2.76,2.45,4.82h-5.07c-.04-.79-.38-1.44-1-1.96-.62-.52-1.45-.77-2.48-.77-.9,0-1.62.23-2.15.69-.54.46-.81,1.13-.81,2.01,0,.61.2,1.12.61,1.53.41.41.91.74,1.51.99.6.25,1.45.54,2.55.87,1.49.44,2.71.88,3.65,1.32.94.44,1.75,1.1,2.43,1.97.68.88,1.02,2.03,1.02,3.45,0,1.23-.32,2.37-.95,3.42-.64,1.05-1.57,1.89-2.8,2.52-1.23.62-2.69.94-4.38.94-1.6,0-3.04-.27-4.33-.82Z" fill="#fff"/>
      </g>
      <g>
        <path d="M85.59,465.72c-1.8-1.01-3.22-2.41-4.28-4.19s-1.58-3.81-1.58-6.07.53-4.25,1.58-6.04c1.05-1.79,2.48-3.19,4.28-4.19s3.77-1.51,5.92-1.51,4.15.5,5.94,1.51,3.2,2.41,4.24,4.19c1.04,1.79,1.56,3.8,1.56,6.04s-.52,4.28-1.56,6.07c-1.04,1.79-2.46,3.19-4.26,4.19-1.8,1.01-3.77,1.51-5.92,1.51s-4.12-.5-5.92-1.51ZM95.16,462.18c1.05-.62,1.88-1.52,2.47-2.68.59-1.16.89-2.51.89-4.05s-.3-2.88-.89-4.03-1.41-2.03-2.47-2.65c-1.05-.61-2.27-.92-3.65-.92s-2.6.31-3.67.92c-1.06.61-1.89,1.5-2.48,2.65-.59,1.15-.89,2.5-.89,4.03s.3,2.88.89,4.05c.59,1.16,1.42,2.06,2.48,2.68,1.06.62,2.29.94,3.67.94s2.6-.31,3.65-.94Z" fill="#fff"/>
        <path d="M120.86,444.04v3.72h-9.57v5.89h7.34v3.65h-7.34v9.71h-4.61v-22.96h14.18Z" fill="#fff"/>
        <path d="M138.29,444.04v3.72h-9.57v5.89h7.34v3.65h-7.34v9.71h-4.61v-22.96h14.18Z" fill="#fff"/>
        <path d="M146.16,444.04v22.96h-4.61v-22.96h4.61Z" fill="#fff"/>
        <path d="M151.11,449.41c1.02-1.79,2.41-3.18,4.18-4.18,1.77-1,3.74-1.5,5.94-1.5,2.57,0,4.81.66,6.74,1.97,1.93,1.32,3.28,3.14,4.05,5.46h-5.3c-.53-1.1-1.27-1.92-2.22-2.47-.95-.55-2.06-.82-3.31-.82-1.34,0-2.53.31-3.57.94-1.04.63-1.85,1.51-2.43,2.65-.58,1.14-.87,2.48-.87,4.01s.29,2.85.87,4c.58,1.15,1.39,2.04,2.43,2.67,1.04.62,2.23.94,3.57.94,1.25,0,2.35-.28,3.31-.84.95-.56,1.69-1.39,2.22-2.48h5.3c-.77,2.35-2.11,4.17-4.03,5.48-1.92,1.31-4.17,1.96-6.76,1.96-2.19,0-4.17-.5-5.94-1.5-1.77-1-3.16-2.39-4.18-4.16-1.02-1.78-1.53-3.79-1.53-6.05s.51-4.28,1.53-6.07Z" fill="#fff"/>
        <path d="M180.57,447.75v5.76h7.73v3.65h-7.73v6.09h8.72v3.75h-13.32v-23h13.32v3.75h-8.72Z" fill="#fff"/>
      </g>
    </g>
    <rect x="447.66" y="315.4" width="1067.84" height="500.1" fill="#95efcc" stroke="#6d8c7d" stroke-miterlimit="10" stroke-width="3"/>
    <g>
      <path d="M864.49,507.3c-5.85-2.5-10.48-6.1-13.88-10.8-3.4-4.7-5.15-10.25-5.25-16.65h22.5c.3,4.3,1.82,7.7,4.58,10.2,2.75,2.5,6.52,3.75,11.32,3.75s8.75-1.17,11.55-3.52c2.8-2.35,4.2-5.42,4.2-9.23,0-3.1-.95-5.65-2.85-7.65-1.9-2-4.28-3.57-7.12-4.73-2.85-1.15-6.78-2.42-11.78-3.82-6.8-2-12.33-3.98-16.57-5.93-4.25-1.95-7.9-4.9-10.95-8.85-3.05-3.95-4.57-9.23-4.57-15.83,0-6.2,1.55-11.6,4.65-16.2,3.1-4.6,7.45-8.12,13.05-10.57,5.6-2.45,12-3.68,19.2-3.68,10.8,0,19.57,2.62,26.32,7.88s10.47,12.58,11.18,21.98h-23.1c-.2-3.6-1.73-6.57-4.58-8.92-2.85-2.35-6.63-3.52-11.32-3.52-4.1,0-7.38,1.05-9.83,3.15-2.45,2.1-3.67,5.15-3.67,9.15,0,2.8.92,5.13,2.77,6.98,1.85,1.85,4.15,3.35,6.9,4.5,2.75,1.15,6.62,2.48,11.62,3.98,6.8,2,12.35,4,16.65,6,4.3,2,8,5,11.1,9,3.1,4,4.65,9.25,4.65,15.75,0,5.6-1.45,10.8-4.35,15.6-2.9,4.8-7.15,8.62-12.75,11.48-5.6,2.85-12.25,4.27-19.95,4.27-7.3,0-13.88-1.25-19.73-3.75Z" fill="#fff"/>
      <path d="M955.84,507.3c-5.85-2.5-10.48-6.1-13.88-10.8-3.4-4.7-5.15-10.25-5.25-16.65h22.5c.3,4.3,1.82,7.7,4.58,10.2,2.75,2.5,6.53,3.75,11.32,3.75s8.75-1.17,11.55-3.52c2.8-2.35,4.2-5.42,4.2-9.23,0-3.1-.95-5.65-2.85-7.65-1.9-2-4.28-3.57-7.12-4.73-2.85-1.15-6.78-2.42-11.78-3.82-6.8-2-12.33-3.98-16.57-5.93-4.25-1.95-7.9-4.9-10.95-8.85-3.05-3.95-4.57-9.23-4.57-15.83,0-6.2,1.55-11.6,4.65-16.2,3.1-4.6,7.45-8.12,13.05-10.57,5.6-2.45,12-3.68,19.2-3.68,10.8,0,19.57,2.62,26.32,7.88s10.47,12.58,11.18,21.98h-23.1c-.2-3.6-1.73-6.57-4.58-8.92-2.85-2.35-6.62-3.52-11.32-3.52-4.1,0-7.38,1.05-9.83,3.15-2.45,2.1-3.67,5.15-3.67,9.15,0,2.8.92,5.13,2.78,6.98,1.85,1.85,4.15,3.35,6.9,4.5,2.75,1.15,6.62,2.48,11.62,3.98,6.8,2,12.35,4,16.65,6,4.3,2,8,5,11.1,9,3.1,4,4.65,9.25,4.65,15.75,0,5.6-1.45,10.8-4.35,15.6-2.9,4.8-7.15,8.62-12.75,11.48-5.6,2.85-12.25,4.27-19.95,4.27-7.3,0-13.88-1.25-19.73-3.75Z" fill="#fff"/>
      <path d="M1102.02,405.3v16.95h-27.9v87.75h-21v-87.75h-27.9v-16.95h76.8Z" fill="#fff"/>
      <path d="M813.04,585.3v16.95h-43.65v26.85h33.45v16.65h-33.45v44.25h-21v-104.7h64.65Z" fill="#fff"/>
      <path d="M849.49,684.15c-8.2-4.6-14.7-10.97-19.5-19.12-4.8-8.15-7.2-17.38-7.2-27.68s2.4-19.37,7.2-27.52c4.8-8.15,11.3-14.52,19.5-19.12,8.2-4.6,17.2-6.9,27-6.9s18.92,2.3,27.07,6.9c8.15,4.6,14.6,10.98,19.35,19.12,4.75,8.15,7.12,17.33,7.12,27.52s-2.38,19.53-7.12,27.68c-4.75,8.15-11.23,14.53-19.42,19.12-8.2,4.6-17.2,6.9-27,6.9s-18.8-2.3-27-6.9ZM893.14,668.03c4.8-2.85,8.55-6.92,11.25-12.23,2.7-5.3,4.05-11.45,4.05-18.45s-1.35-13.12-4.05-18.38c-2.7-5.25-6.45-9.27-11.25-12.07-4.8-2.8-10.35-4.2-16.65-4.2s-11.88,1.4-16.73,4.2c-4.85,2.8-8.62,6.82-11.33,12.07-2.7,5.25-4.05,11.38-4.05,18.38s1.35,13.15,4.05,18.45c2.7,5.3,6.47,9.38,11.33,12.23,4.85,2.85,10.42,4.27,16.73,4.27s11.85-1.42,16.65-4.27Z" fill="#fff"/>
      <path d="M1028.89,585.3l-35.4,68.25v36.45h-21v-36.45l-35.55-68.25h23.7l22.5,47.85,22.35-47.85h23.4Z" fill="#fff"/>
      <path d="M1062.04,602.25v26.25h35.25v16.65h-35.25v27.75h39.75v17.1h-60.75v-104.85h60.75v17.1h-39.75Z" fill="#fff"/>
      <path d="M1174.84,690l-23.1-40.8h-9.9v40.8h-21v-104.7h39.3c8.1,0,15,1.42,20.7,4.28,5.7,2.85,9.98,6.7,12.83,11.55,2.85,4.85,4.28,10.28,4.28,16.28,0,6.9-2,13.12-6,18.67-4,5.55-9.95,9.38-17.85,11.47l25.05,42.45h-24.3ZM1141.84,633.45h17.55c5.7,0,9.95-1.37,12.75-4.12,2.8-2.75,4.2-6.57,4.2-11.48s-1.4-8.52-4.2-11.17c-2.8-2.65-7.05-3.97-12.75-3.97h-17.55v30.75Z" fill="#fff"/>
    </g>
    <rect x="1675.5" y="442.5" width="263" height="136" fill="#fed766" stroke="#fff" stroke-miterlimit="10" stroke-width="3"/>
    <rect x="1744" y="578.5" width="190.14" height="187" fill="#71b340" stroke="#fff" stroke-miterlimit="10" stroke-width="3"/>
    <g>
      <path d="M1808.93,658.61l-6.08-10.75h-2.61v10.75h-5.53v-27.57h10.35c2.13,0,3.95.38,5.45,1.12,1.5.75,2.63,1.77,3.38,3.04.75,1.28,1.13,2.71,1.13,4.29,0,1.82-.53,3.46-1.58,4.92-1.05,1.46-2.62,2.47-4.7,3.02l6.6,11.18h-6.4ZM1800.24,643.72h4.62c1.5,0,2.62-.36,3.36-1.09s1.11-1.73,1.11-3.02-.37-2.25-1.11-2.94c-.74-.7-1.86-1.05-3.36-1.05h-4.62v8.1Z" fill="#fff"/>
      <path d="M1825.56,635.5v6.91h9.28v4.38h-9.28v7.31h10.47v4.5h-16v-27.61h16v4.5h-10.47Z" fill="#fff"/>
      <path d="M1845.37,657.9c-1.54-.66-2.76-1.61-3.65-2.84-.9-1.24-1.36-2.7-1.38-4.38h5.93c.08,1.13.48,2.03,1.2,2.69s1.72.99,2.98.99,2.3-.31,3.04-.93,1.11-1.43,1.11-2.43c0-.82-.25-1.49-.75-2.01-.5-.53-1.13-.94-1.88-1.24-.75-.3-1.79-.64-3.1-1.01-1.79-.53-3.25-1.05-4.36-1.56-1.12-.51-2.08-1.29-2.88-2.33-.8-1.04-1.21-2.43-1.21-4.17,0-1.63.41-3.05,1.22-4.27.82-1.21,1.96-2.14,3.44-2.79,1.47-.64,3.16-.97,5.06-.97,2.84,0,5.16.69,6.93,2.07,1.78,1.38,2.76,3.31,2.94,5.79h-6.08c-.05-.95-.45-1.73-1.21-2.35-.75-.62-1.75-.93-2.98-.93-1.08,0-1.94.28-2.59.83-.65.55-.97,1.36-.97,2.41,0,.74.24,1.35.73,1.84s1.09.88,1.82,1.19c.72.3,1.74.65,3.06,1.05,1.79.53,3.25,1.05,4.38,1.58,1.13.53,2.11,1.32,2.92,2.37s1.22,2.44,1.22,4.15c0,1.48-.38,2.84-1.15,4.11-.76,1.26-1.88,2.27-3.36,3.02-1.48.75-3.23,1.13-5.25,1.13-1.92,0-3.65-.33-5.2-.99Z" fill="#fff"/>
      <path d="M1883.86,631.04v4.46h-7.35v23.11h-5.53v-23.11h-7.35v-4.46h20.23Z" fill="#fff"/>
      <path d="M1794.09,706.01l-6.08-10.75h-2.61v10.75h-5.53v-27.57h10.35c2.13,0,3.95.38,5.45,1.13,1.5.75,2.63,1.76,3.38,3.04.75,1.28,1.13,2.71,1.13,4.29,0,1.82-.53,3.46-1.58,4.92-1.05,1.46-2.62,2.47-4.7,3.02l6.6,11.18h-6.4ZM1785.4,691.12h4.62c1.5,0,2.62-.36,3.36-1.09s1.11-1.73,1.11-3.02-.37-2.25-1.11-2.94c-.74-.7-1.86-1.05-3.36-1.05h-4.62v8.1Z" fill="#fff"/>
      <path d="M1810.88,704.47c-2.16-1.21-3.87-2.89-5.14-5.04-1.26-2.15-1.9-4.58-1.9-7.29s.63-5.1,1.9-7.25c1.26-2.15,2.98-3.83,5.14-5.04,2.16-1.21,4.53-1.82,7.11-1.82s4.98.61,7.13,1.82,3.84,2.89,5.1,5.04c1.25,2.15,1.88,4.56,1.88,7.25s-.63,5.14-1.88,7.29c-1.25,2.15-2.96,3.83-5.12,5.04-2.16,1.21-4.53,1.82-7.11,1.82s-4.95-.61-7.11-1.82ZM1822.38,700.23c1.26-.75,2.25-1.82,2.96-3.22.71-1.4,1.07-3.01,1.07-4.86s-.36-3.46-1.07-4.84c-.71-1.38-1.7-2.44-2.96-3.18-1.26-.74-2.73-1.11-4.38-1.11s-3.13.37-4.4,1.11c-1.28.74-2.27,1.8-2.98,3.18-.71,1.38-1.07,3-1.07,4.84s.36,3.46,1.07,4.86c.71,1.4,1.71,2.47,2.98,3.22s2.75,1.13,4.4,1.13,3.12-.38,4.38-1.13Z" fill="#fff"/>
      <path d="M1841.89,704.47c-2.16-1.21-3.87-2.89-5.14-5.04-1.26-2.15-1.9-4.58-1.9-7.29s.63-5.1,1.9-7.25c1.26-2.15,2.98-3.83,5.14-5.04,2.16-1.21,4.53-1.82,7.11-1.82s4.98.61,7.13,1.82,3.84,2.89,5.1,5.04c1.25,2.15,1.88,4.56,1.88,7.25s-.63,5.14-1.88,7.29c-1.25,2.15-2.96,3.83-5.12,5.04-2.16,1.21-4.53,1.82-7.11,1.82s-4.95-.61-7.11-1.82ZM1853.39,700.23c1.26-.75,2.25-1.82,2.96-3.22.71-1.4,1.07-3.01,1.07-4.86s-.36-3.46-1.07-4.84c-.71-1.38-1.7-2.44-2.96-3.18-1.26-.74-2.73-1.11-4.38-1.11s-3.13.37-4.4,1.11c-1.28.74-2.27,1.8-2.98,3.18-.71,1.38-1.07,3-1.07,4.84s.36,3.46,1.07,4.86c.71,1.4,1.71,2.47,2.98,3.22s2.75,1.13,4.4,1.13,3.12-.38,4.38-1.13Z" fill="#fff"/>
      <path d="M1897.27,678.44v27.57h-5.53v-17.93l-7.39,17.93h-4.19l-7.43-17.93v17.93h-5.53v-27.57h6.28l8.77,20.5,8.77-20.5h6.24Z" fill="#fff"/>
    </g>
    <g>
      <path d="M1706.59,530.22c-2.34-1-4.19-2.44-5.55-4.32-1.36-1.88-2.06-4.1-2.1-6.66h9c.12,1.72.73,3.08,1.83,4.08,1.1,1,2.61,1.5,4.53,1.5s3.5-.47,4.62-1.41c1.12-.94,1.68-2.17,1.68-3.69,0-1.24-.38-2.26-1.14-3.06s-1.71-1.43-2.85-1.89c-1.14-.46-2.71-.97-4.71-1.53-2.72-.8-4.93-1.59-6.63-2.37-1.7-.78-3.16-1.96-4.38-3.54s-1.83-3.69-1.83-6.33c0-2.48.62-4.64,1.86-6.48,1.24-1.84,2.98-3.25,5.22-4.23,2.24-.98,4.8-1.47,7.68-1.47,4.32,0,7.83,1.05,10.53,3.15,2.7,2.1,4.19,5.03,4.47,8.79h-9.24c-.08-1.44-.69-2.63-1.83-3.57-1.14-.94-2.65-1.41-4.53-1.41-1.64,0-2.95.42-3.93,1.26-.98.84-1.47,2.06-1.47,3.66,0,1.12.37,2.05,1.11,2.79s1.66,1.34,2.76,1.8c1.1.46,2.65.99,4.65,1.59,2.72.8,4.94,1.6,6.66,2.4s3.2,2,4.44,3.6c1.24,1.6,1.86,3.7,1.86,6.3,0,2.24-.58,4.32-1.74,6.24-1.16,1.92-2.86,3.45-5.1,4.59s-4.9,1.71-7.98,1.71c-2.92,0-5.55-.5-7.89-1.5Z" fill="#fff"/>
      <path d="M1765.06,489.42v6.78h-11.16v35.1h-8.4v-35.1h-11.16v-6.78h30.72Z" fill="#fff"/>
      <path d="M1796.86,523.32h-16.68l-2.76,7.98h-8.82l15.06-41.94h9.78l15.06,41.94h-8.88l-2.76-7.98ZM1794.58,516.6l-6.06-17.52-6.06,17.52h12.12Z" fill="#fff"/>
      <path d="M1822.54,489.42v41.88h-8.4v-41.88h8.4Z" fill="#fff"/>
      <path d="M1852.42,531.3l-9.24-16.32h-3.96v16.32h-8.4v-41.88h15.72c3.24,0,6,.57,8.28,1.71,2.28,1.14,3.99,2.68,5.13,4.62,1.14,1.94,1.71,4.11,1.71,6.51,0,2.76-.8,5.25-2.4,7.47-1.6,2.22-3.98,3.75-7.14,4.59l10.02,16.98h-9.72ZM1839.22,508.68h7.02c2.28,0,3.98-.55,5.1-1.65,1.12-1.1,1.68-2.63,1.68-4.59s-.56-3.41-1.68-4.47c-1.12-1.06-2.82-1.59-5.1-1.59h-7.02v12.3Z" fill="#fff"/>
      <path d="M1875.85,530.22c-2.34-1-4.19-2.44-5.55-4.32-1.36-1.88-2.06-4.1-2.1-6.66h9c.12,1.72.73,3.08,1.83,4.08,1.1,1,2.61,1.5,4.53,1.5s3.5-.47,4.62-1.41c1.12-.94,1.68-2.17,1.68-3.69,0-1.24-.38-2.26-1.14-3.06-.76-.8-1.71-1.43-2.85-1.89-1.14-.46-2.71-.97-4.71-1.53-2.72-.8-4.93-1.59-6.63-2.37-1.7-.78-3.16-1.96-4.38-3.54-1.22-1.58-1.83-3.69-1.83-6.33,0-2.48.62-4.64,1.86-6.48,1.24-1.84,2.98-3.25,5.22-4.23,2.24-.98,4.8-1.47,7.68-1.47,4.32,0,7.83,1.05,10.53,3.15s4.19,5.03,4.47,8.79h-9.24c-.08-1.44-.69-2.63-1.83-3.57-1.14-.94-2.65-1.41-4.53-1.41-1.64,0-2.95.42-3.93,1.26-.98.84-1.47,2.06-1.47,3.66,0,1.12.37,2.05,1.11,2.79.74.74,1.66,1.34,2.76,1.8,1.1.46,2.65.99,4.65,1.59,2.72.8,4.94,1.6,6.66,2.4,1.72.8,3.2,2,4.44,3.6,1.24,1.6,1.86,3.7,1.86,6.3,0,2.24-.58,4.32-1.74,6.24s-2.86,3.45-5.1,4.59c-2.24,1.14-4.9,1.71-7.98,1.71-2.92,0-5.55-.5-7.89-1.5Z" fill="#fff"/>
    </g>
    <rect x="-16.5" y="-2.5" width="306.5" height="74.93" fill="#395e7c" stroke="#fff" stroke-miterlimit="10"/>
    <g>
      <path d="M83.59,12.07c.83-1.46,1.97-2.59,3.41-3.41,1.44-.81,3.05-1.22,4.84-1.22,2.09,0,3.92.54,5.5,1.61,1.57,1.07,2.67,2.56,3.3,4.45h-4.32c-.43-.89-1.03-1.56-1.81-2.01-.78-.45-1.68-.67-2.7-.67-1.09,0-2.06.25-2.91.76-.85.51-1.51,1.23-1.98,2.16-.47.93-.71,2.02-.71,3.27s.24,2.32.71,3.26c.47.94,1.14,1.66,1.98,2.17.85.51,1.82.76,2.91.76,1.02,0,1.92-.23,2.7-.68s1.38-1.13,1.81-2.02h4.32c-.63,1.91-1.72,3.4-3.29,4.47-1.56,1.06-3.4,1.6-5.51,1.6-1.79,0-3.4-.41-4.84-1.22-1.44-.81-2.58-1.94-3.41-3.39-.83-1.45-1.25-3.09-1.25-4.94s.42-3.49,1.25-4.95Z" fill="#fff"/>
      <path d="M107.61,10.72v4.69h6.3v2.98h-6.3v4.96h7.11v3.06h-10.86V7.66h10.86v3.06h-7.11Z" fill="#fff"/>
      <path d="M134.13,26.41h-3.75l-8.5-12.85v12.85h-3.76V7.66h3.76l8.5,12.88V7.66h3.75v18.75Z" fill="#fff"/>
      <path d="M150.58,7.69v3.03h-4.99v15.69h-3.76v-15.69h-4.99v-3.03h13.73Z" fill="#fff"/>
      <path d="M162.97,26.41l-4.13-7.3h-1.77v7.3h-3.76V7.69h7.03c1.45,0,2.68.25,3.7.76,1.02.51,1.78,1.2,2.29,2.07.51.87.76,1.84.76,2.91,0,1.23-.36,2.35-1.07,3.34-.72.99-1.78,1.68-3.19,2.05l4.48,7.59h-4.35ZM157.07,16.3h3.14c1.02,0,1.78-.25,2.28-.74s.75-1.18.75-2.05-.25-1.52-.75-2c-.5-.47-1.26-.71-2.28-.71h-3.14v5.5Z" fill="#fff"/>
      <path d="M181.99,22.84h-7.46l-1.23,3.57h-3.94l6.73-18.75h4.37l6.73,18.75h-3.97l-1.23-3.57ZM180.97,19.84l-2.71-7.83-2.71,7.83h5.42Z" fill="#fff"/>
      <path d="M193.47,23.43h6.17v2.98h-9.92V7.69h3.76v15.74Z" fill="#fff"/>
      <path d="M89.45,39.88l-5.23,18.72h-4.43l-3.51-13.33-3.67,13.33-4.4.03-5.04-18.75h4.02l3.3,14.54,3.81-14.54h4.18l3.59,14.46,3.33-14.46h4.05Z" fill="#fff"/>
      <path d="M95.75,57.55c-1.47-.82-2.63-1.96-3.49-3.42-.86-1.46-1.29-3.11-1.29-4.95s.43-3.46,1.29-4.92c.86-1.46,2.02-2.6,3.49-3.42,1.47-.82,3.08-1.23,4.83-1.23s3.38.41,4.84,1.23c1.46.82,2.61,1.96,3.46,3.42.85,1.46,1.27,3.1,1.27,4.92s-.43,3.49-1.27,4.95-2.01,2.6-3.47,3.42c-1.47.82-3.08,1.23-4.83,1.23s-3.36-.41-4.83-1.23ZM103.56,54.67c.86-.51,1.53-1.24,2.01-2.19.48-.95.72-2.05.72-3.3s-.24-2.35-.72-3.29c-.48-.94-1.15-1.66-2.01-2.16-.86-.5-1.85-.75-2.98-.75s-2.12.25-2.99.75c-.87.5-1.54,1.22-2.03,2.16-.48.94-.72,2.03-.72,3.29s.24,2.35.72,3.3c.48.95,1.16,1.68,2.03,2.19.87.51,1.86.76,2.99.76s2.12-.25,2.98-.76Z" fill="#fff"/>
      <path d="M122.6,58.6l-4.13-7.3h-1.77v7.3h-3.76v-18.72h7.03c1.45,0,2.68.25,3.7.76,1.02.51,1.78,1.2,2.29,2.07.51.87.76,1.84.76,2.91,0,1.23-.36,2.35-1.07,3.34-.72.99-1.78,1.68-3.19,2.05l4.48,7.59h-4.35ZM116.7,48.49h3.14c1.02,0,1.78-.25,2.28-.74s.75-1.18.75-2.05-.25-1.52-.75-2c-.5-.47-1.26-.71-2.28-.71h-3.14v5.5Z" fill="#fff"/>
      <path d="M140.71,58.6l-6.81-8.34v8.34h-3.76v-18.72h3.76v8.4l6.81-8.4h4.53l-7.73,9.28,7.94,9.44h-4.75Z" fill="#fff"/>
      <path d="M150.86,58.11c-1.05-.45-1.87-1.09-2.48-1.93-.61-.84-.92-1.83-.94-2.98h4.02c.05.77.33,1.38.82,1.82.49.45,1.17.67,2.02.67s1.56-.21,2.07-.63c.5-.42.75-.97.75-1.65,0-.55-.17-1.01-.51-1.37-.34-.36-.76-.64-1.27-.84-.51-.21-1.21-.43-2.11-.68-1.22-.36-2.2-.71-2.96-1.06-.76-.35-1.41-.88-1.96-1.58-.55-.71-.82-1.65-.82-2.83,0-1.11.28-2.07.83-2.9.55-.82,1.33-1.45,2.33-1.89,1-.44,2.15-.66,3.43-.66,1.93,0,3.5.47,4.71,1.41,1.21.94,1.87,2.25,2,3.93h-4.13c-.04-.64-.31-1.18-.82-1.6-.51-.42-1.18-.63-2.02-.63-.73,0-1.32.19-1.76.56-.44.38-.66.92-.66,1.64,0,.5.17.92.5,1.25.33.33.74.6,1.23.8.49.21,1.18.44,2.08.71,1.22.36,2.21.72,2.98,1.07.77.36,1.43.89,1.98,1.61.55.72.83,1.65.83,2.82,0,1-.26,1.93-.78,2.79-.52.86-1.28,1.54-2.28,2.05s-2.19.76-3.57.76c-1.31,0-2.48-.22-3.53-.67Z" fill="#fff"/>
      <path d="M179.79,39.88v18.72h-3.76v-7.97h-8.02v7.97h-3.76v-18.72h3.76v7.7h8.02v-7.7h3.76Z" fill="#fff"/>
      <path d="M187.35,57.55c-1.47-.82-2.63-1.96-3.49-3.42-.86-1.46-1.29-3.11-1.29-4.95s.43-3.46,1.29-4.92c.86-1.46,2.02-2.6,3.49-3.42,1.47-.82,3.08-1.23,4.83-1.23s3.38.41,4.84,1.23c1.46.82,2.61,1.96,3.46,3.42.85,1.46,1.27,3.1,1.27,4.92s-.43,3.49-1.27,4.95-2.01,2.6-3.47,3.42c-1.47.82-3.08,1.23-4.83,1.23s-3.36-.41-4.83-1.23ZM195.16,54.67c.86-.51,1.53-1.24,2.01-2.19.48-.95.72-2.05.72-3.3s-.24-2.35-.72-3.29c-.48-.94-1.15-1.66-2.01-2.16-.86-.5-1.85-.75-2.98-.75s-2.12.25-2.99.75c-.87.5-1.54,1.22-2.03,2.16-.48.94-.72,2.03-.72,3.29s.24,2.35.72,3.3c.48.95,1.16,1.68,2.03,2.19.87.51,1.86.76,2.99.76s2.12-.25,2.98-.76Z" fill="#fff"/>
      <path d="M217.49,48.49c-.47.88-1.22,1.58-2.23,2.12s-2.28.8-3.82.8h-3.14v7.19h-3.76v-18.72h6.89c1.45,0,2.68.25,3.7.75,1.02.5,1.78,1.19,2.29,2.07.51.88.76,1.87.76,2.98,0,1-.24,1.94-.71,2.82ZM213.58,47.67c.5-.47.75-1.14.75-2,0-1.82-1.02-2.74-3.06-2.74h-2.98v5.45h2.98c1.04,0,1.81-.24,2.31-.71Z" fill="#fff"/>
    </g>
    <rect x="1077" y="1015" width="592" height="74" fill="#f99969" stroke="#fff" stroke-miterlimit="10" stroke-width="10"/>
    <g>
      <path d="M1234.78,1037.18v10.5h14.1v6.66h-14.1v11.1h15.9v6.84h-24.3v-41.94h24.3v6.84h-15.9Z" fill="#fff"/>
      <path d="M1294.12,1072.28h-8.4l-19.02-28.74v28.74h-8.4v-41.94h8.4l19.02,28.8v-28.8h8.4v41.94Z" fill="#fff"/>
      <path d="M1330.9,1030.4v6.78h-11.16v35.1h-8.4v-35.1h-11.16v-6.78h30.72Z" fill="#fff"/>
      <path d="M1358.62,1072.28l-9.24-16.32h-3.96v16.32h-8.4v-41.88h15.72c3.24,0,6,.57,8.28,1.71s3.99,2.68,5.13,4.62c1.14,1.94,1.71,4.11,1.71,6.51,0,2.76-.8,5.25-2.4,7.47-1.6,2.22-3.98,3.75-7.14,4.59l10.02,16.98h-9.72ZM1345.42,1049.66h7.02c2.28,0,3.98-.55,5.1-1.65,1.12-1.1,1.68-2.63,1.68-4.59s-.56-3.41-1.68-4.47c-1.12-1.06-2.82-1.59-5.1-1.59h-7.02v12.3Z" fill="#fff"/>
      <path d="M1401.16,1064.3h-16.68l-2.76,7.98h-8.82l15.06-41.94h9.78l15.06,41.94h-8.88l-2.76-7.98ZM1398.88,1057.58l-6.06-17.52-6.06,17.52h12.12Z" fill="#fff"/>
      <path d="M1454.26,1072.28h-8.4l-19.02-28.74v28.74h-8.4v-41.94h8.4l19.02,28.8v-28.8h8.4v41.94Z" fill="#fff"/>
      <path d="M1463.29,1040.21c1.86-3.26,4.4-5.8,7.62-7.62,3.22-1.82,6.83-2.73,10.83-2.73,4.68,0,8.78,1.2,12.3,3.6,3.52,2.4,5.98,5.72,7.38,9.96h-9.66c-.96-2-2.31-3.5-4.05-4.5-1.74-1-3.75-1.5-6.03-1.5-2.44,0-4.61.57-6.51,1.71-1.9,1.14-3.38,2.75-4.44,4.83-1.06,2.08-1.59,4.52-1.59,7.32s.53,5.19,1.59,7.29c1.06,2.1,2.54,3.72,4.44,4.86,1.9,1.14,4.07,1.71,6.51,1.71,2.28,0,4.29-.51,6.03-1.53,1.74-1.02,3.09-2.53,4.05-4.53h9.66c-1.4,4.28-3.85,7.61-7.35,9.99s-7.61,3.57-12.33,3.57c-4,0-7.61-.91-10.83-2.73-3.22-1.82-5.76-4.35-7.62-7.59-1.86-3.24-2.79-6.92-2.79-11.04s.93-7.81,2.79-11.07Z" fill="#fff"/>
      <path d="M1517.02,1037.18v10.5h14.1v6.66h-14.1v11.1h15.9v6.84h-24.3v-41.94h24.3v6.84h-15.9Z" fill="#fff"/>
    </g>
    <rect x="-15.5" y="825.5" width="22" height="123.5" fill="#ddd" stroke="#999" stroke-miterlimit="10"/>
    <rect x="1910.67" y="214" width="26.45" height="22" fill="#ddd"/>
  </g>
</svg>